G04 EAGLE Gerber RS-274X export*
G75*
%MOMM*%
%FSLAX34Y34*%
%LPD*%
%IN*%
%IPPOS*%
%AMOC8*
5,1,8,0,0,1.08239X$1,22.5*%
G01*
%ADD10C,0.203200*%
%ADD11C,0.000000*%
%ADD12C,0.254000*%


D10*
X0Y0D02*
X381000Y0D01*
X381000Y1003300D01*
X0Y1003300D01*
X0Y0D01*
D11*
X8890Y25400D02*
X8895Y25805D01*
X8910Y26210D01*
X8935Y26615D01*
X8970Y27018D01*
X9014Y27421D01*
X9069Y27823D01*
X9133Y28223D01*
X9207Y28621D01*
X9291Y29017D01*
X9385Y29412D01*
X9488Y29803D01*
X9601Y30193D01*
X9723Y30579D01*
X9855Y30962D01*
X9996Y31342D01*
X10147Y31718D01*
X10306Y32091D01*
X10475Y32459D01*
X10653Y32823D01*
X10839Y33183D01*
X11035Y33538D01*
X11239Y33888D01*
X11451Y34233D01*
X11672Y34572D01*
X11902Y34907D01*
X12139Y35235D01*
X12384Y35557D01*
X12638Y35874D01*
X12898Y36184D01*
X13167Y36487D01*
X13443Y36784D01*
X13726Y37074D01*
X14016Y37357D01*
X14313Y37633D01*
X14616Y37902D01*
X14926Y38162D01*
X15243Y38416D01*
X15565Y38661D01*
X15893Y38898D01*
X16228Y39128D01*
X16567Y39349D01*
X16912Y39561D01*
X17262Y39765D01*
X17617Y39961D01*
X17977Y40147D01*
X18341Y40325D01*
X18709Y40494D01*
X19082Y40653D01*
X19458Y40804D01*
X19838Y40945D01*
X20221Y41077D01*
X20607Y41199D01*
X20997Y41312D01*
X21388Y41415D01*
X21783Y41509D01*
X22179Y41593D01*
X22577Y41667D01*
X22977Y41731D01*
X23379Y41786D01*
X23782Y41830D01*
X24185Y41865D01*
X24590Y41890D01*
X24995Y41905D01*
X25400Y41910D01*
X25805Y41905D01*
X26210Y41890D01*
X26615Y41865D01*
X27018Y41830D01*
X27421Y41786D01*
X27823Y41731D01*
X28223Y41667D01*
X28621Y41593D01*
X29017Y41509D01*
X29412Y41415D01*
X29803Y41312D01*
X30193Y41199D01*
X30579Y41077D01*
X30962Y40945D01*
X31342Y40804D01*
X31718Y40653D01*
X32091Y40494D01*
X32459Y40325D01*
X32823Y40147D01*
X33183Y39961D01*
X33538Y39765D01*
X33888Y39561D01*
X34233Y39349D01*
X34572Y39128D01*
X34907Y38898D01*
X35235Y38661D01*
X35557Y38416D01*
X35874Y38162D01*
X36184Y37902D01*
X36487Y37633D01*
X36784Y37357D01*
X37074Y37074D01*
X37357Y36784D01*
X37633Y36487D01*
X37902Y36184D01*
X38162Y35874D01*
X38416Y35557D01*
X38661Y35235D01*
X38898Y34907D01*
X39128Y34572D01*
X39349Y34233D01*
X39561Y33888D01*
X39765Y33538D01*
X39961Y33183D01*
X40147Y32823D01*
X40325Y32459D01*
X40494Y32091D01*
X40653Y31718D01*
X40804Y31342D01*
X40945Y30962D01*
X41077Y30579D01*
X41199Y30193D01*
X41312Y29803D01*
X41415Y29412D01*
X41509Y29017D01*
X41593Y28621D01*
X41667Y28223D01*
X41731Y27823D01*
X41786Y27421D01*
X41830Y27018D01*
X41865Y26615D01*
X41890Y26210D01*
X41905Y25805D01*
X41910Y25400D01*
X41905Y24995D01*
X41890Y24590D01*
X41865Y24185D01*
X41830Y23782D01*
X41786Y23379D01*
X41731Y22977D01*
X41667Y22577D01*
X41593Y22179D01*
X41509Y21783D01*
X41415Y21388D01*
X41312Y20997D01*
X41199Y20607D01*
X41077Y20221D01*
X40945Y19838D01*
X40804Y19458D01*
X40653Y19082D01*
X40494Y18709D01*
X40325Y18341D01*
X40147Y17977D01*
X39961Y17617D01*
X39765Y17262D01*
X39561Y16912D01*
X39349Y16567D01*
X39128Y16228D01*
X38898Y15893D01*
X38661Y15565D01*
X38416Y15243D01*
X38162Y14926D01*
X37902Y14616D01*
X37633Y14313D01*
X37357Y14016D01*
X37074Y13726D01*
X36784Y13443D01*
X36487Y13167D01*
X36184Y12898D01*
X35874Y12638D01*
X35557Y12384D01*
X35235Y12139D01*
X34907Y11902D01*
X34572Y11672D01*
X34233Y11451D01*
X33888Y11239D01*
X33538Y11035D01*
X33183Y10839D01*
X32823Y10653D01*
X32459Y10475D01*
X32091Y10306D01*
X31718Y10147D01*
X31342Y9996D01*
X30962Y9855D01*
X30579Y9723D01*
X30193Y9601D01*
X29803Y9488D01*
X29412Y9385D01*
X29017Y9291D01*
X28621Y9207D01*
X28223Y9133D01*
X27823Y9069D01*
X27421Y9014D01*
X27018Y8970D01*
X26615Y8935D01*
X26210Y8910D01*
X25805Y8895D01*
X25400Y8890D01*
X24995Y8895D01*
X24590Y8910D01*
X24185Y8935D01*
X23782Y8970D01*
X23379Y9014D01*
X22977Y9069D01*
X22577Y9133D01*
X22179Y9207D01*
X21783Y9291D01*
X21388Y9385D01*
X20997Y9488D01*
X20607Y9601D01*
X20221Y9723D01*
X19838Y9855D01*
X19458Y9996D01*
X19082Y10147D01*
X18709Y10306D01*
X18341Y10475D01*
X17977Y10653D01*
X17617Y10839D01*
X17262Y11035D01*
X16912Y11239D01*
X16567Y11451D01*
X16228Y11672D01*
X15893Y11902D01*
X15565Y12139D01*
X15243Y12384D01*
X14926Y12638D01*
X14616Y12898D01*
X14313Y13167D01*
X14016Y13443D01*
X13726Y13726D01*
X13443Y14016D01*
X13167Y14313D01*
X12898Y14616D01*
X12638Y14926D01*
X12384Y15243D01*
X12139Y15565D01*
X11902Y15893D01*
X11672Y16228D01*
X11451Y16567D01*
X11239Y16912D01*
X11035Y17262D01*
X10839Y17617D01*
X10653Y17977D01*
X10475Y18341D01*
X10306Y18709D01*
X10147Y19082D01*
X9996Y19458D01*
X9855Y19838D01*
X9723Y20221D01*
X9601Y20607D01*
X9488Y20997D01*
X9385Y21388D01*
X9291Y21783D01*
X9207Y22179D01*
X9133Y22577D01*
X9069Y22977D01*
X9014Y23379D01*
X8970Y23782D01*
X8935Y24185D01*
X8910Y24590D01*
X8895Y24995D01*
X8890Y25400D01*
X8890Y977900D02*
X8895Y978305D01*
X8910Y978710D01*
X8935Y979115D01*
X8970Y979518D01*
X9014Y979921D01*
X9069Y980323D01*
X9133Y980723D01*
X9207Y981121D01*
X9291Y981517D01*
X9385Y981912D01*
X9488Y982303D01*
X9601Y982693D01*
X9723Y983079D01*
X9855Y983462D01*
X9996Y983842D01*
X10147Y984218D01*
X10306Y984591D01*
X10475Y984959D01*
X10653Y985323D01*
X10839Y985683D01*
X11035Y986038D01*
X11239Y986388D01*
X11451Y986733D01*
X11672Y987072D01*
X11902Y987407D01*
X12139Y987735D01*
X12384Y988057D01*
X12638Y988374D01*
X12898Y988684D01*
X13167Y988987D01*
X13443Y989284D01*
X13726Y989574D01*
X14016Y989857D01*
X14313Y990133D01*
X14616Y990402D01*
X14926Y990662D01*
X15243Y990916D01*
X15565Y991161D01*
X15893Y991398D01*
X16228Y991628D01*
X16567Y991849D01*
X16912Y992061D01*
X17262Y992265D01*
X17617Y992461D01*
X17977Y992647D01*
X18341Y992825D01*
X18709Y992994D01*
X19082Y993153D01*
X19458Y993304D01*
X19838Y993445D01*
X20221Y993577D01*
X20607Y993699D01*
X20997Y993812D01*
X21388Y993915D01*
X21783Y994009D01*
X22179Y994093D01*
X22577Y994167D01*
X22977Y994231D01*
X23379Y994286D01*
X23782Y994330D01*
X24185Y994365D01*
X24590Y994390D01*
X24995Y994405D01*
X25400Y994410D01*
X25805Y994405D01*
X26210Y994390D01*
X26615Y994365D01*
X27018Y994330D01*
X27421Y994286D01*
X27823Y994231D01*
X28223Y994167D01*
X28621Y994093D01*
X29017Y994009D01*
X29412Y993915D01*
X29803Y993812D01*
X30193Y993699D01*
X30579Y993577D01*
X30962Y993445D01*
X31342Y993304D01*
X31718Y993153D01*
X32091Y992994D01*
X32459Y992825D01*
X32823Y992647D01*
X33183Y992461D01*
X33538Y992265D01*
X33888Y992061D01*
X34233Y991849D01*
X34572Y991628D01*
X34907Y991398D01*
X35235Y991161D01*
X35557Y990916D01*
X35874Y990662D01*
X36184Y990402D01*
X36487Y990133D01*
X36784Y989857D01*
X37074Y989574D01*
X37357Y989284D01*
X37633Y988987D01*
X37902Y988684D01*
X38162Y988374D01*
X38416Y988057D01*
X38661Y987735D01*
X38898Y987407D01*
X39128Y987072D01*
X39349Y986733D01*
X39561Y986388D01*
X39765Y986038D01*
X39961Y985683D01*
X40147Y985323D01*
X40325Y984959D01*
X40494Y984591D01*
X40653Y984218D01*
X40804Y983842D01*
X40945Y983462D01*
X41077Y983079D01*
X41199Y982693D01*
X41312Y982303D01*
X41415Y981912D01*
X41509Y981517D01*
X41593Y981121D01*
X41667Y980723D01*
X41731Y980323D01*
X41786Y979921D01*
X41830Y979518D01*
X41865Y979115D01*
X41890Y978710D01*
X41905Y978305D01*
X41910Y977900D01*
X41905Y977495D01*
X41890Y977090D01*
X41865Y976685D01*
X41830Y976282D01*
X41786Y975879D01*
X41731Y975477D01*
X41667Y975077D01*
X41593Y974679D01*
X41509Y974283D01*
X41415Y973888D01*
X41312Y973497D01*
X41199Y973107D01*
X41077Y972721D01*
X40945Y972338D01*
X40804Y971958D01*
X40653Y971582D01*
X40494Y971209D01*
X40325Y970841D01*
X40147Y970477D01*
X39961Y970117D01*
X39765Y969762D01*
X39561Y969412D01*
X39349Y969067D01*
X39128Y968728D01*
X38898Y968393D01*
X38661Y968065D01*
X38416Y967743D01*
X38162Y967426D01*
X37902Y967116D01*
X37633Y966813D01*
X37357Y966516D01*
X37074Y966226D01*
X36784Y965943D01*
X36487Y965667D01*
X36184Y965398D01*
X35874Y965138D01*
X35557Y964884D01*
X35235Y964639D01*
X34907Y964402D01*
X34572Y964172D01*
X34233Y963951D01*
X33888Y963739D01*
X33538Y963535D01*
X33183Y963339D01*
X32823Y963153D01*
X32459Y962975D01*
X32091Y962806D01*
X31718Y962647D01*
X31342Y962496D01*
X30962Y962355D01*
X30579Y962223D01*
X30193Y962101D01*
X29803Y961988D01*
X29412Y961885D01*
X29017Y961791D01*
X28621Y961707D01*
X28223Y961633D01*
X27823Y961569D01*
X27421Y961514D01*
X27018Y961470D01*
X26615Y961435D01*
X26210Y961410D01*
X25805Y961395D01*
X25400Y961390D01*
X24995Y961395D01*
X24590Y961410D01*
X24185Y961435D01*
X23782Y961470D01*
X23379Y961514D01*
X22977Y961569D01*
X22577Y961633D01*
X22179Y961707D01*
X21783Y961791D01*
X21388Y961885D01*
X20997Y961988D01*
X20607Y962101D01*
X20221Y962223D01*
X19838Y962355D01*
X19458Y962496D01*
X19082Y962647D01*
X18709Y962806D01*
X18341Y962975D01*
X17977Y963153D01*
X17617Y963339D01*
X17262Y963535D01*
X16912Y963739D01*
X16567Y963951D01*
X16228Y964172D01*
X15893Y964402D01*
X15565Y964639D01*
X15243Y964884D01*
X14926Y965138D01*
X14616Y965398D01*
X14313Y965667D01*
X14016Y965943D01*
X13726Y966226D01*
X13443Y966516D01*
X13167Y966813D01*
X12898Y967116D01*
X12638Y967426D01*
X12384Y967743D01*
X12139Y968065D01*
X11902Y968393D01*
X11672Y968728D01*
X11451Y969067D01*
X11239Y969412D01*
X11035Y969762D01*
X10839Y970117D01*
X10653Y970477D01*
X10475Y970841D01*
X10306Y971209D01*
X10147Y971582D01*
X9996Y971958D01*
X9855Y972338D01*
X9723Y972721D01*
X9601Y973107D01*
X9488Y973497D01*
X9385Y973888D01*
X9291Y974283D01*
X9207Y974679D01*
X9133Y975077D01*
X9069Y975477D01*
X9014Y975879D01*
X8970Y976282D01*
X8935Y976685D01*
X8910Y977090D01*
X8895Y977495D01*
X8890Y977900D01*
X339090Y25400D02*
X339095Y25805D01*
X339110Y26210D01*
X339135Y26615D01*
X339170Y27018D01*
X339214Y27421D01*
X339269Y27823D01*
X339333Y28223D01*
X339407Y28621D01*
X339491Y29017D01*
X339585Y29412D01*
X339688Y29803D01*
X339801Y30193D01*
X339923Y30579D01*
X340055Y30962D01*
X340196Y31342D01*
X340347Y31718D01*
X340506Y32091D01*
X340675Y32459D01*
X340853Y32823D01*
X341039Y33183D01*
X341235Y33538D01*
X341439Y33888D01*
X341651Y34233D01*
X341872Y34572D01*
X342102Y34907D01*
X342339Y35235D01*
X342584Y35557D01*
X342838Y35874D01*
X343098Y36184D01*
X343367Y36487D01*
X343643Y36784D01*
X343926Y37074D01*
X344216Y37357D01*
X344513Y37633D01*
X344816Y37902D01*
X345126Y38162D01*
X345443Y38416D01*
X345765Y38661D01*
X346093Y38898D01*
X346428Y39128D01*
X346767Y39349D01*
X347112Y39561D01*
X347462Y39765D01*
X347817Y39961D01*
X348177Y40147D01*
X348541Y40325D01*
X348909Y40494D01*
X349282Y40653D01*
X349658Y40804D01*
X350038Y40945D01*
X350421Y41077D01*
X350807Y41199D01*
X351197Y41312D01*
X351588Y41415D01*
X351983Y41509D01*
X352379Y41593D01*
X352777Y41667D01*
X353177Y41731D01*
X353579Y41786D01*
X353982Y41830D01*
X354385Y41865D01*
X354790Y41890D01*
X355195Y41905D01*
X355600Y41910D01*
X356005Y41905D01*
X356410Y41890D01*
X356815Y41865D01*
X357218Y41830D01*
X357621Y41786D01*
X358023Y41731D01*
X358423Y41667D01*
X358821Y41593D01*
X359217Y41509D01*
X359612Y41415D01*
X360003Y41312D01*
X360393Y41199D01*
X360779Y41077D01*
X361162Y40945D01*
X361542Y40804D01*
X361918Y40653D01*
X362291Y40494D01*
X362659Y40325D01*
X363023Y40147D01*
X363383Y39961D01*
X363738Y39765D01*
X364088Y39561D01*
X364433Y39349D01*
X364772Y39128D01*
X365107Y38898D01*
X365435Y38661D01*
X365757Y38416D01*
X366074Y38162D01*
X366384Y37902D01*
X366687Y37633D01*
X366984Y37357D01*
X367274Y37074D01*
X367557Y36784D01*
X367833Y36487D01*
X368102Y36184D01*
X368362Y35874D01*
X368616Y35557D01*
X368861Y35235D01*
X369098Y34907D01*
X369328Y34572D01*
X369549Y34233D01*
X369761Y33888D01*
X369965Y33538D01*
X370161Y33183D01*
X370347Y32823D01*
X370525Y32459D01*
X370694Y32091D01*
X370853Y31718D01*
X371004Y31342D01*
X371145Y30962D01*
X371277Y30579D01*
X371399Y30193D01*
X371512Y29803D01*
X371615Y29412D01*
X371709Y29017D01*
X371793Y28621D01*
X371867Y28223D01*
X371931Y27823D01*
X371986Y27421D01*
X372030Y27018D01*
X372065Y26615D01*
X372090Y26210D01*
X372105Y25805D01*
X372110Y25400D01*
X372105Y24995D01*
X372090Y24590D01*
X372065Y24185D01*
X372030Y23782D01*
X371986Y23379D01*
X371931Y22977D01*
X371867Y22577D01*
X371793Y22179D01*
X371709Y21783D01*
X371615Y21388D01*
X371512Y20997D01*
X371399Y20607D01*
X371277Y20221D01*
X371145Y19838D01*
X371004Y19458D01*
X370853Y19082D01*
X370694Y18709D01*
X370525Y18341D01*
X370347Y17977D01*
X370161Y17617D01*
X369965Y17262D01*
X369761Y16912D01*
X369549Y16567D01*
X369328Y16228D01*
X369098Y15893D01*
X368861Y15565D01*
X368616Y15243D01*
X368362Y14926D01*
X368102Y14616D01*
X367833Y14313D01*
X367557Y14016D01*
X367274Y13726D01*
X366984Y13443D01*
X366687Y13167D01*
X366384Y12898D01*
X366074Y12638D01*
X365757Y12384D01*
X365435Y12139D01*
X365107Y11902D01*
X364772Y11672D01*
X364433Y11451D01*
X364088Y11239D01*
X363738Y11035D01*
X363383Y10839D01*
X363023Y10653D01*
X362659Y10475D01*
X362291Y10306D01*
X361918Y10147D01*
X361542Y9996D01*
X361162Y9855D01*
X360779Y9723D01*
X360393Y9601D01*
X360003Y9488D01*
X359612Y9385D01*
X359217Y9291D01*
X358821Y9207D01*
X358423Y9133D01*
X358023Y9069D01*
X357621Y9014D01*
X357218Y8970D01*
X356815Y8935D01*
X356410Y8910D01*
X356005Y8895D01*
X355600Y8890D01*
X355195Y8895D01*
X354790Y8910D01*
X354385Y8935D01*
X353982Y8970D01*
X353579Y9014D01*
X353177Y9069D01*
X352777Y9133D01*
X352379Y9207D01*
X351983Y9291D01*
X351588Y9385D01*
X351197Y9488D01*
X350807Y9601D01*
X350421Y9723D01*
X350038Y9855D01*
X349658Y9996D01*
X349282Y10147D01*
X348909Y10306D01*
X348541Y10475D01*
X348177Y10653D01*
X347817Y10839D01*
X347462Y11035D01*
X347112Y11239D01*
X346767Y11451D01*
X346428Y11672D01*
X346093Y11902D01*
X345765Y12139D01*
X345443Y12384D01*
X345126Y12638D01*
X344816Y12898D01*
X344513Y13167D01*
X344216Y13443D01*
X343926Y13726D01*
X343643Y14016D01*
X343367Y14313D01*
X343098Y14616D01*
X342838Y14926D01*
X342584Y15243D01*
X342339Y15565D01*
X342102Y15893D01*
X341872Y16228D01*
X341651Y16567D01*
X341439Y16912D01*
X341235Y17262D01*
X341039Y17617D01*
X340853Y17977D01*
X340675Y18341D01*
X340506Y18709D01*
X340347Y19082D01*
X340196Y19458D01*
X340055Y19838D01*
X339923Y20221D01*
X339801Y20607D01*
X339688Y20997D01*
X339585Y21388D01*
X339491Y21783D01*
X339407Y22179D01*
X339333Y22577D01*
X339269Y22977D01*
X339214Y23379D01*
X339170Y23782D01*
X339135Y24185D01*
X339110Y24590D01*
X339095Y24995D01*
X339090Y25400D01*
X339090Y977900D02*
X339095Y978305D01*
X339110Y978710D01*
X339135Y979115D01*
X339170Y979518D01*
X339214Y979921D01*
X339269Y980323D01*
X339333Y980723D01*
X339407Y981121D01*
X339491Y981517D01*
X339585Y981912D01*
X339688Y982303D01*
X339801Y982693D01*
X339923Y983079D01*
X340055Y983462D01*
X340196Y983842D01*
X340347Y984218D01*
X340506Y984591D01*
X340675Y984959D01*
X340853Y985323D01*
X341039Y985683D01*
X341235Y986038D01*
X341439Y986388D01*
X341651Y986733D01*
X341872Y987072D01*
X342102Y987407D01*
X342339Y987735D01*
X342584Y988057D01*
X342838Y988374D01*
X343098Y988684D01*
X343367Y988987D01*
X343643Y989284D01*
X343926Y989574D01*
X344216Y989857D01*
X344513Y990133D01*
X344816Y990402D01*
X345126Y990662D01*
X345443Y990916D01*
X345765Y991161D01*
X346093Y991398D01*
X346428Y991628D01*
X346767Y991849D01*
X347112Y992061D01*
X347462Y992265D01*
X347817Y992461D01*
X348177Y992647D01*
X348541Y992825D01*
X348909Y992994D01*
X349282Y993153D01*
X349658Y993304D01*
X350038Y993445D01*
X350421Y993577D01*
X350807Y993699D01*
X351197Y993812D01*
X351588Y993915D01*
X351983Y994009D01*
X352379Y994093D01*
X352777Y994167D01*
X353177Y994231D01*
X353579Y994286D01*
X353982Y994330D01*
X354385Y994365D01*
X354790Y994390D01*
X355195Y994405D01*
X355600Y994410D01*
X356005Y994405D01*
X356410Y994390D01*
X356815Y994365D01*
X357218Y994330D01*
X357621Y994286D01*
X358023Y994231D01*
X358423Y994167D01*
X358821Y994093D01*
X359217Y994009D01*
X359612Y993915D01*
X360003Y993812D01*
X360393Y993699D01*
X360779Y993577D01*
X361162Y993445D01*
X361542Y993304D01*
X361918Y993153D01*
X362291Y992994D01*
X362659Y992825D01*
X363023Y992647D01*
X363383Y992461D01*
X363738Y992265D01*
X364088Y992061D01*
X364433Y991849D01*
X364772Y991628D01*
X365107Y991398D01*
X365435Y991161D01*
X365757Y990916D01*
X366074Y990662D01*
X366384Y990402D01*
X366687Y990133D01*
X366984Y989857D01*
X367274Y989574D01*
X367557Y989284D01*
X367833Y988987D01*
X368102Y988684D01*
X368362Y988374D01*
X368616Y988057D01*
X368861Y987735D01*
X369098Y987407D01*
X369328Y987072D01*
X369549Y986733D01*
X369761Y986388D01*
X369965Y986038D01*
X370161Y985683D01*
X370347Y985323D01*
X370525Y984959D01*
X370694Y984591D01*
X370853Y984218D01*
X371004Y983842D01*
X371145Y983462D01*
X371277Y983079D01*
X371399Y982693D01*
X371512Y982303D01*
X371615Y981912D01*
X371709Y981517D01*
X371793Y981121D01*
X371867Y980723D01*
X371931Y980323D01*
X371986Y979921D01*
X372030Y979518D01*
X372065Y979115D01*
X372090Y978710D01*
X372105Y978305D01*
X372110Y977900D01*
X372105Y977495D01*
X372090Y977090D01*
X372065Y976685D01*
X372030Y976282D01*
X371986Y975879D01*
X371931Y975477D01*
X371867Y975077D01*
X371793Y974679D01*
X371709Y974283D01*
X371615Y973888D01*
X371512Y973497D01*
X371399Y973107D01*
X371277Y972721D01*
X371145Y972338D01*
X371004Y971958D01*
X370853Y971582D01*
X370694Y971209D01*
X370525Y970841D01*
X370347Y970477D01*
X370161Y970117D01*
X369965Y969762D01*
X369761Y969412D01*
X369549Y969067D01*
X369328Y968728D01*
X369098Y968393D01*
X368861Y968065D01*
X368616Y967743D01*
X368362Y967426D01*
X368102Y967116D01*
X367833Y966813D01*
X367557Y966516D01*
X367274Y966226D01*
X366984Y965943D01*
X366687Y965667D01*
X366384Y965398D01*
X366074Y965138D01*
X365757Y964884D01*
X365435Y964639D01*
X365107Y964402D01*
X364772Y964172D01*
X364433Y963951D01*
X364088Y963739D01*
X363738Y963535D01*
X363383Y963339D01*
X363023Y963153D01*
X362659Y962975D01*
X362291Y962806D01*
X361918Y962647D01*
X361542Y962496D01*
X361162Y962355D01*
X360779Y962223D01*
X360393Y962101D01*
X360003Y961988D01*
X359612Y961885D01*
X359217Y961791D01*
X358821Y961707D01*
X358423Y961633D01*
X358023Y961569D01*
X357621Y961514D01*
X357218Y961470D01*
X356815Y961435D01*
X356410Y961410D01*
X356005Y961395D01*
X355600Y961390D01*
X355195Y961395D01*
X354790Y961410D01*
X354385Y961435D01*
X353982Y961470D01*
X353579Y961514D01*
X353177Y961569D01*
X352777Y961633D01*
X352379Y961707D01*
X351983Y961791D01*
X351588Y961885D01*
X351197Y961988D01*
X350807Y962101D01*
X350421Y962223D01*
X350038Y962355D01*
X349658Y962496D01*
X349282Y962647D01*
X348909Y962806D01*
X348541Y962975D01*
X348177Y963153D01*
X347817Y963339D01*
X347462Y963535D01*
X347112Y963739D01*
X346767Y963951D01*
X346428Y964172D01*
X346093Y964402D01*
X345765Y964639D01*
X345443Y964884D01*
X345126Y965138D01*
X344816Y965398D01*
X344513Y965667D01*
X344216Y965943D01*
X343926Y966226D01*
X343643Y966516D01*
X343367Y966813D01*
X343098Y967116D01*
X342838Y967426D01*
X342584Y967743D01*
X342339Y968065D01*
X342102Y968393D01*
X341872Y968728D01*
X341651Y969067D01*
X341439Y969412D01*
X341235Y969762D01*
X341039Y970117D01*
X340853Y970477D01*
X340675Y970841D01*
X340506Y971209D01*
X340347Y971582D01*
X340196Y971958D01*
X340055Y972338D01*
X339923Y972721D01*
X339801Y973107D01*
X339688Y973497D01*
X339585Y973888D01*
X339491Y974283D01*
X339407Y974679D01*
X339333Y975077D01*
X339269Y975477D01*
X339214Y975879D01*
X339170Y976282D01*
X339135Y976685D01*
X339110Y977090D01*
X339095Y977495D01*
X339090Y977900D01*
X5700Y368300D02*
X5702Y368472D01*
X5708Y368643D01*
X5719Y368815D01*
X5734Y368986D01*
X5753Y369157D01*
X5776Y369327D01*
X5803Y369497D01*
X5835Y369666D01*
X5870Y369834D01*
X5910Y370001D01*
X5954Y370167D01*
X6001Y370332D01*
X6053Y370496D01*
X6109Y370658D01*
X6169Y370819D01*
X6233Y370979D01*
X6301Y371137D01*
X6372Y371293D01*
X6447Y371447D01*
X6527Y371600D01*
X6609Y371750D01*
X6696Y371899D01*
X6786Y372045D01*
X6880Y372189D01*
X6977Y372331D01*
X7078Y372470D01*
X7182Y372607D01*
X7289Y372741D01*
X7400Y372872D01*
X7513Y373001D01*
X7630Y373127D01*
X7750Y373250D01*
X7873Y373370D01*
X7999Y373487D01*
X8128Y373600D01*
X8259Y373711D01*
X8393Y373818D01*
X8530Y373922D01*
X8669Y374023D01*
X8811Y374120D01*
X8955Y374214D01*
X9101Y374304D01*
X9250Y374391D01*
X9400Y374473D01*
X9553Y374553D01*
X9707Y374628D01*
X9863Y374699D01*
X10021Y374767D01*
X10181Y374831D01*
X10342Y374891D01*
X10504Y374947D01*
X10668Y374999D01*
X10833Y375046D01*
X10999Y375090D01*
X11166Y375130D01*
X11334Y375165D01*
X11503Y375197D01*
X11673Y375224D01*
X11843Y375247D01*
X12014Y375266D01*
X12185Y375281D01*
X12357Y375292D01*
X12528Y375298D01*
X12700Y375300D01*
X12872Y375298D01*
X13043Y375292D01*
X13215Y375281D01*
X13386Y375266D01*
X13557Y375247D01*
X13727Y375224D01*
X13897Y375197D01*
X14066Y375165D01*
X14234Y375130D01*
X14401Y375090D01*
X14567Y375046D01*
X14732Y374999D01*
X14896Y374947D01*
X15058Y374891D01*
X15219Y374831D01*
X15379Y374767D01*
X15537Y374699D01*
X15693Y374628D01*
X15847Y374553D01*
X16000Y374473D01*
X16150Y374391D01*
X16299Y374304D01*
X16445Y374214D01*
X16589Y374120D01*
X16731Y374023D01*
X16870Y373922D01*
X17007Y373818D01*
X17141Y373711D01*
X17272Y373600D01*
X17401Y373487D01*
X17527Y373370D01*
X17650Y373250D01*
X17770Y373127D01*
X17887Y373001D01*
X18000Y372872D01*
X18111Y372741D01*
X18218Y372607D01*
X18322Y372470D01*
X18423Y372331D01*
X18520Y372189D01*
X18614Y372045D01*
X18704Y371899D01*
X18791Y371750D01*
X18873Y371600D01*
X18953Y371447D01*
X19028Y371293D01*
X19099Y371137D01*
X19167Y370979D01*
X19231Y370819D01*
X19291Y370658D01*
X19347Y370496D01*
X19399Y370332D01*
X19446Y370167D01*
X19490Y370001D01*
X19530Y369834D01*
X19565Y369666D01*
X19597Y369497D01*
X19624Y369327D01*
X19647Y369157D01*
X19666Y368986D01*
X19681Y368815D01*
X19692Y368643D01*
X19698Y368472D01*
X19700Y368300D01*
X19698Y368128D01*
X19692Y367957D01*
X19681Y367785D01*
X19666Y367614D01*
X19647Y367443D01*
X19624Y367273D01*
X19597Y367103D01*
X19565Y366934D01*
X19530Y366766D01*
X19490Y366599D01*
X19446Y366433D01*
X19399Y366268D01*
X19347Y366104D01*
X19291Y365942D01*
X19231Y365781D01*
X19167Y365621D01*
X19099Y365463D01*
X19028Y365307D01*
X18953Y365153D01*
X18873Y365000D01*
X18791Y364850D01*
X18704Y364701D01*
X18614Y364555D01*
X18520Y364411D01*
X18423Y364269D01*
X18322Y364130D01*
X18218Y363993D01*
X18111Y363859D01*
X18000Y363728D01*
X17887Y363599D01*
X17770Y363473D01*
X17650Y363350D01*
X17527Y363230D01*
X17401Y363113D01*
X17272Y363000D01*
X17141Y362889D01*
X17007Y362782D01*
X16870Y362678D01*
X16731Y362577D01*
X16589Y362480D01*
X16445Y362386D01*
X16299Y362296D01*
X16150Y362209D01*
X16000Y362127D01*
X15847Y362047D01*
X15693Y361972D01*
X15537Y361901D01*
X15379Y361833D01*
X15219Y361769D01*
X15058Y361709D01*
X14896Y361653D01*
X14732Y361601D01*
X14567Y361554D01*
X14401Y361510D01*
X14234Y361470D01*
X14066Y361435D01*
X13897Y361403D01*
X13727Y361376D01*
X13557Y361353D01*
X13386Y361334D01*
X13215Y361319D01*
X13043Y361308D01*
X12872Y361302D01*
X12700Y361300D01*
X12528Y361302D01*
X12357Y361308D01*
X12185Y361319D01*
X12014Y361334D01*
X11843Y361353D01*
X11673Y361376D01*
X11503Y361403D01*
X11334Y361435D01*
X11166Y361470D01*
X10999Y361510D01*
X10833Y361554D01*
X10668Y361601D01*
X10504Y361653D01*
X10342Y361709D01*
X10181Y361769D01*
X10021Y361833D01*
X9863Y361901D01*
X9707Y361972D01*
X9553Y362047D01*
X9400Y362127D01*
X9250Y362209D01*
X9101Y362296D01*
X8955Y362386D01*
X8811Y362480D01*
X8669Y362577D01*
X8530Y362678D01*
X8393Y362782D01*
X8259Y362889D01*
X8128Y363000D01*
X7999Y363113D01*
X7873Y363230D01*
X7750Y363350D01*
X7630Y363473D01*
X7513Y363599D01*
X7400Y363728D01*
X7289Y363859D01*
X7182Y363993D01*
X7078Y364130D01*
X6977Y364269D01*
X6880Y364411D01*
X6786Y364555D01*
X6696Y364701D01*
X6609Y364850D01*
X6527Y365000D01*
X6447Y365153D01*
X6372Y365307D01*
X6301Y365463D01*
X6233Y365621D01*
X6169Y365781D01*
X6109Y365942D01*
X6053Y366104D01*
X6001Y366268D01*
X5954Y366433D01*
X5910Y366599D01*
X5870Y366766D01*
X5835Y366934D01*
X5803Y367103D01*
X5776Y367273D01*
X5753Y367443D01*
X5734Y367614D01*
X5719Y367785D01*
X5708Y367957D01*
X5702Y368128D01*
X5700Y368300D01*
X5700Y266700D02*
X5702Y266872D01*
X5708Y267043D01*
X5719Y267215D01*
X5734Y267386D01*
X5753Y267557D01*
X5776Y267727D01*
X5803Y267897D01*
X5835Y268066D01*
X5870Y268234D01*
X5910Y268401D01*
X5954Y268567D01*
X6001Y268732D01*
X6053Y268896D01*
X6109Y269058D01*
X6169Y269219D01*
X6233Y269379D01*
X6301Y269537D01*
X6372Y269693D01*
X6447Y269847D01*
X6527Y270000D01*
X6609Y270150D01*
X6696Y270299D01*
X6786Y270445D01*
X6880Y270589D01*
X6977Y270731D01*
X7078Y270870D01*
X7182Y271007D01*
X7289Y271141D01*
X7400Y271272D01*
X7513Y271401D01*
X7630Y271527D01*
X7750Y271650D01*
X7873Y271770D01*
X7999Y271887D01*
X8128Y272000D01*
X8259Y272111D01*
X8393Y272218D01*
X8530Y272322D01*
X8669Y272423D01*
X8811Y272520D01*
X8955Y272614D01*
X9101Y272704D01*
X9250Y272791D01*
X9400Y272873D01*
X9553Y272953D01*
X9707Y273028D01*
X9863Y273099D01*
X10021Y273167D01*
X10181Y273231D01*
X10342Y273291D01*
X10504Y273347D01*
X10668Y273399D01*
X10833Y273446D01*
X10999Y273490D01*
X11166Y273530D01*
X11334Y273565D01*
X11503Y273597D01*
X11673Y273624D01*
X11843Y273647D01*
X12014Y273666D01*
X12185Y273681D01*
X12357Y273692D01*
X12528Y273698D01*
X12700Y273700D01*
X12872Y273698D01*
X13043Y273692D01*
X13215Y273681D01*
X13386Y273666D01*
X13557Y273647D01*
X13727Y273624D01*
X13897Y273597D01*
X14066Y273565D01*
X14234Y273530D01*
X14401Y273490D01*
X14567Y273446D01*
X14732Y273399D01*
X14896Y273347D01*
X15058Y273291D01*
X15219Y273231D01*
X15379Y273167D01*
X15537Y273099D01*
X15693Y273028D01*
X15847Y272953D01*
X16000Y272873D01*
X16150Y272791D01*
X16299Y272704D01*
X16445Y272614D01*
X16589Y272520D01*
X16731Y272423D01*
X16870Y272322D01*
X17007Y272218D01*
X17141Y272111D01*
X17272Y272000D01*
X17401Y271887D01*
X17527Y271770D01*
X17650Y271650D01*
X17770Y271527D01*
X17887Y271401D01*
X18000Y271272D01*
X18111Y271141D01*
X18218Y271007D01*
X18322Y270870D01*
X18423Y270731D01*
X18520Y270589D01*
X18614Y270445D01*
X18704Y270299D01*
X18791Y270150D01*
X18873Y270000D01*
X18953Y269847D01*
X19028Y269693D01*
X19099Y269537D01*
X19167Y269379D01*
X19231Y269219D01*
X19291Y269058D01*
X19347Y268896D01*
X19399Y268732D01*
X19446Y268567D01*
X19490Y268401D01*
X19530Y268234D01*
X19565Y268066D01*
X19597Y267897D01*
X19624Y267727D01*
X19647Y267557D01*
X19666Y267386D01*
X19681Y267215D01*
X19692Y267043D01*
X19698Y266872D01*
X19700Y266700D01*
X19698Y266528D01*
X19692Y266357D01*
X19681Y266185D01*
X19666Y266014D01*
X19647Y265843D01*
X19624Y265673D01*
X19597Y265503D01*
X19565Y265334D01*
X19530Y265166D01*
X19490Y264999D01*
X19446Y264833D01*
X19399Y264668D01*
X19347Y264504D01*
X19291Y264342D01*
X19231Y264181D01*
X19167Y264021D01*
X19099Y263863D01*
X19028Y263707D01*
X18953Y263553D01*
X18873Y263400D01*
X18791Y263250D01*
X18704Y263101D01*
X18614Y262955D01*
X18520Y262811D01*
X18423Y262669D01*
X18322Y262530D01*
X18218Y262393D01*
X18111Y262259D01*
X18000Y262128D01*
X17887Y261999D01*
X17770Y261873D01*
X17650Y261750D01*
X17527Y261630D01*
X17401Y261513D01*
X17272Y261400D01*
X17141Y261289D01*
X17007Y261182D01*
X16870Y261078D01*
X16731Y260977D01*
X16589Y260880D01*
X16445Y260786D01*
X16299Y260696D01*
X16150Y260609D01*
X16000Y260527D01*
X15847Y260447D01*
X15693Y260372D01*
X15537Y260301D01*
X15379Y260233D01*
X15219Y260169D01*
X15058Y260109D01*
X14896Y260053D01*
X14732Y260001D01*
X14567Y259954D01*
X14401Y259910D01*
X14234Y259870D01*
X14066Y259835D01*
X13897Y259803D01*
X13727Y259776D01*
X13557Y259753D01*
X13386Y259734D01*
X13215Y259719D01*
X13043Y259708D01*
X12872Y259702D01*
X12700Y259700D01*
X12528Y259702D01*
X12357Y259708D01*
X12185Y259719D01*
X12014Y259734D01*
X11843Y259753D01*
X11673Y259776D01*
X11503Y259803D01*
X11334Y259835D01*
X11166Y259870D01*
X10999Y259910D01*
X10833Y259954D01*
X10668Y260001D01*
X10504Y260053D01*
X10342Y260109D01*
X10181Y260169D01*
X10021Y260233D01*
X9863Y260301D01*
X9707Y260372D01*
X9553Y260447D01*
X9400Y260527D01*
X9250Y260609D01*
X9101Y260696D01*
X8955Y260786D01*
X8811Y260880D01*
X8669Y260977D01*
X8530Y261078D01*
X8393Y261182D01*
X8259Y261289D01*
X8128Y261400D01*
X7999Y261513D01*
X7873Y261630D01*
X7750Y261750D01*
X7630Y261873D01*
X7513Y261999D01*
X7400Y262128D01*
X7289Y262259D01*
X7182Y262393D01*
X7078Y262530D01*
X6977Y262669D01*
X6880Y262811D01*
X6786Y262955D01*
X6696Y263101D01*
X6609Y263250D01*
X6527Y263400D01*
X6447Y263553D01*
X6372Y263707D01*
X6301Y263863D01*
X6233Y264021D01*
X6169Y264181D01*
X6109Y264342D01*
X6053Y264504D01*
X6001Y264668D01*
X5954Y264833D01*
X5910Y264999D01*
X5870Y265166D01*
X5835Y265334D01*
X5803Y265503D01*
X5776Y265673D01*
X5753Y265843D01*
X5734Y266014D01*
X5719Y266185D01*
X5708Y266357D01*
X5702Y266528D01*
X5700Y266700D01*
D12*
X0Y0D02*
X381000Y0D01*
X381000Y1003300D01*
X0Y1003300D01*
X0Y0D01*
X41910Y24860D02*
X41839Y23781D01*
X41698Y22709D01*
X41487Y21649D01*
X41208Y20605D01*
X40860Y19581D01*
X40446Y18583D01*
X39968Y17613D01*
X39428Y16677D01*
X38827Y15778D01*
X38169Y14921D01*
X37457Y14108D01*
X36692Y13344D01*
X35879Y12631D01*
X35022Y11973D01*
X34123Y11372D01*
X33187Y10832D01*
X32217Y10354D01*
X31219Y9940D01*
X30195Y9592D01*
X29151Y9313D01*
X28091Y9102D01*
X27019Y8961D01*
X25940Y8890D01*
X24860Y8890D01*
X23781Y8961D01*
X22709Y9102D01*
X21649Y9313D01*
X20605Y9592D01*
X19581Y9940D01*
X18583Y10354D01*
X17613Y10832D01*
X16677Y11372D01*
X15778Y11973D01*
X14921Y12631D01*
X14108Y13344D01*
X13344Y14108D01*
X12631Y14921D01*
X11973Y15778D01*
X11372Y16677D01*
X10832Y17613D01*
X10354Y18583D01*
X9940Y19581D01*
X9592Y20605D01*
X9313Y21649D01*
X9102Y22709D01*
X8961Y23781D01*
X8890Y24860D01*
X8890Y25940D01*
X8961Y27019D01*
X9102Y28091D01*
X9313Y29151D01*
X9592Y30195D01*
X9940Y31219D01*
X10354Y32217D01*
X10832Y33187D01*
X11372Y34123D01*
X11973Y35022D01*
X12631Y35879D01*
X13344Y36692D01*
X14108Y37457D01*
X14921Y38169D01*
X15778Y38827D01*
X16677Y39428D01*
X17613Y39968D01*
X18583Y40446D01*
X19581Y40860D01*
X20605Y41208D01*
X21649Y41487D01*
X22709Y41698D01*
X23781Y41839D01*
X24860Y41910D01*
X25940Y41910D01*
X27019Y41839D01*
X28091Y41698D01*
X29151Y41487D01*
X30195Y41208D01*
X31219Y40860D01*
X32217Y40446D01*
X33187Y39968D01*
X34123Y39428D01*
X35022Y38827D01*
X35879Y38169D01*
X36692Y37457D01*
X37457Y36692D01*
X38169Y35879D01*
X38827Y35022D01*
X39428Y34123D01*
X39968Y33187D01*
X40446Y32217D01*
X40860Y31219D01*
X41208Y30195D01*
X41487Y29151D01*
X41698Y28091D01*
X41839Y27019D01*
X41910Y25940D01*
X41910Y24860D01*
X41910Y977360D02*
X41839Y976281D01*
X41698Y975209D01*
X41487Y974149D01*
X41208Y973105D01*
X40860Y972081D01*
X40446Y971083D01*
X39968Y970113D01*
X39428Y969177D01*
X38827Y968278D01*
X38169Y967421D01*
X37457Y966608D01*
X36692Y965844D01*
X35879Y965131D01*
X35022Y964473D01*
X34123Y963872D01*
X33187Y963332D01*
X32217Y962854D01*
X31219Y962440D01*
X30195Y962092D01*
X29151Y961813D01*
X28091Y961602D01*
X27019Y961461D01*
X25940Y961390D01*
X24860Y961390D01*
X23781Y961461D01*
X22709Y961602D01*
X21649Y961813D01*
X20605Y962092D01*
X19581Y962440D01*
X18583Y962854D01*
X17613Y963332D01*
X16677Y963872D01*
X15778Y964473D01*
X14921Y965131D01*
X14108Y965844D01*
X13344Y966608D01*
X12631Y967421D01*
X11973Y968278D01*
X11372Y969177D01*
X10832Y970113D01*
X10354Y971083D01*
X9940Y972081D01*
X9592Y973105D01*
X9313Y974149D01*
X9102Y975209D01*
X8961Y976281D01*
X8890Y977360D01*
X8890Y978440D01*
X8961Y979519D01*
X9102Y980591D01*
X9313Y981651D01*
X9592Y982695D01*
X9940Y983719D01*
X10354Y984717D01*
X10832Y985687D01*
X11372Y986623D01*
X11973Y987522D01*
X12631Y988379D01*
X13344Y989192D01*
X14108Y989957D01*
X14921Y990669D01*
X15778Y991327D01*
X16677Y991928D01*
X17613Y992468D01*
X18583Y992946D01*
X19581Y993360D01*
X20605Y993708D01*
X21649Y993987D01*
X22709Y994198D01*
X23781Y994339D01*
X24860Y994410D01*
X25940Y994410D01*
X27019Y994339D01*
X28091Y994198D01*
X29151Y993987D01*
X30195Y993708D01*
X31219Y993360D01*
X32217Y992946D01*
X33187Y992468D01*
X34123Y991928D01*
X35022Y991327D01*
X35879Y990669D01*
X36692Y989957D01*
X37457Y989192D01*
X38169Y988379D01*
X38827Y987522D01*
X39428Y986623D01*
X39968Y985687D01*
X40446Y984717D01*
X40860Y983719D01*
X41208Y982695D01*
X41487Y981651D01*
X41698Y980591D01*
X41839Y979519D01*
X41910Y978440D01*
X41910Y977360D01*
X372110Y24860D02*
X372039Y23781D01*
X371898Y22709D01*
X371687Y21649D01*
X371408Y20605D01*
X371060Y19581D01*
X370646Y18583D01*
X370168Y17613D01*
X369628Y16677D01*
X369027Y15778D01*
X368369Y14921D01*
X367657Y14108D01*
X366892Y13344D01*
X366079Y12631D01*
X365222Y11973D01*
X364323Y11372D01*
X363387Y10832D01*
X362417Y10354D01*
X361419Y9940D01*
X360395Y9592D01*
X359351Y9313D01*
X358291Y9102D01*
X357219Y8961D01*
X356140Y8890D01*
X355060Y8890D01*
X353981Y8961D01*
X352909Y9102D01*
X351849Y9313D01*
X350805Y9592D01*
X349781Y9940D01*
X348783Y10354D01*
X347813Y10832D01*
X346877Y11372D01*
X345978Y11973D01*
X345121Y12631D01*
X344308Y13344D01*
X343544Y14108D01*
X342831Y14921D01*
X342173Y15778D01*
X341572Y16677D01*
X341032Y17613D01*
X340554Y18583D01*
X340140Y19581D01*
X339792Y20605D01*
X339513Y21649D01*
X339302Y22709D01*
X339161Y23781D01*
X339090Y24860D01*
X339090Y25940D01*
X339161Y27019D01*
X339302Y28091D01*
X339513Y29151D01*
X339792Y30195D01*
X340140Y31219D01*
X340554Y32217D01*
X341032Y33187D01*
X341572Y34123D01*
X342173Y35022D01*
X342831Y35879D01*
X343544Y36692D01*
X344308Y37457D01*
X345121Y38169D01*
X345978Y38827D01*
X346877Y39428D01*
X347813Y39968D01*
X348783Y40446D01*
X349781Y40860D01*
X350805Y41208D01*
X351849Y41487D01*
X352909Y41698D01*
X353981Y41839D01*
X355060Y41910D01*
X356140Y41910D01*
X357219Y41839D01*
X358291Y41698D01*
X359351Y41487D01*
X360395Y41208D01*
X361419Y40860D01*
X362417Y40446D01*
X363387Y39968D01*
X364323Y39428D01*
X365222Y38827D01*
X366079Y38169D01*
X366892Y37457D01*
X367657Y36692D01*
X368369Y35879D01*
X369027Y35022D01*
X369628Y34123D01*
X370168Y33187D01*
X370646Y32217D01*
X371060Y31219D01*
X371408Y30195D01*
X371687Y29151D01*
X371898Y28091D01*
X372039Y27019D01*
X372110Y25940D01*
X372110Y24860D01*
X372110Y977360D02*
X372039Y976281D01*
X371898Y975209D01*
X371687Y974149D01*
X371408Y973105D01*
X371060Y972081D01*
X370646Y971083D01*
X370168Y970113D01*
X369628Y969177D01*
X369027Y968278D01*
X368369Y967421D01*
X367657Y966608D01*
X366892Y965844D01*
X366079Y965131D01*
X365222Y964473D01*
X364323Y963872D01*
X363387Y963332D01*
X362417Y962854D01*
X361419Y962440D01*
X360395Y962092D01*
X359351Y961813D01*
X358291Y961602D01*
X357219Y961461D01*
X356140Y961390D01*
X355060Y961390D01*
X353981Y961461D01*
X352909Y961602D01*
X351849Y961813D01*
X350805Y962092D01*
X349781Y962440D01*
X348783Y962854D01*
X347813Y963332D01*
X346877Y963872D01*
X345978Y964473D01*
X345121Y965131D01*
X344308Y965844D01*
X343544Y966608D01*
X342831Y967421D01*
X342173Y968278D01*
X341572Y969177D01*
X341032Y970113D01*
X340554Y971083D01*
X340140Y972081D01*
X339792Y973105D01*
X339513Y974149D01*
X339302Y975209D01*
X339161Y976281D01*
X339090Y977360D01*
X339090Y978440D01*
X339161Y979519D01*
X339302Y980591D01*
X339513Y981651D01*
X339792Y982695D01*
X340140Y983719D01*
X340554Y984717D01*
X341032Y985687D01*
X341572Y986623D01*
X342173Y987522D01*
X342831Y988379D01*
X343544Y989192D01*
X344308Y989957D01*
X345121Y990669D01*
X345978Y991327D01*
X346877Y991928D01*
X347813Y992468D01*
X348783Y992946D01*
X349781Y993360D01*
X350805Y993708D01*
X351849Y993987D01*
X352909Y994198D01*
X353981Y994339D01*
X355060Y994410D01*
X356140Y994410D01*
X357219Y994339D01*
X358291Y994198D01*
X359351Y993987D01*
X360395Y993708D01*
X361419Y993360D01*
X362417Y992946D01*
X363387Y992468D01*
X364323Y991928D01*
X365222Y991327D01*
X366079Y990669D01*
X366892Y989957D01*
X367657Y989192D01*
X368369Y988379D01*
X369027Y987522D01*
X369628Y986623D01*
X370168Y985687D01*
X370646Y984717D01*
X371060Y983719D01*
X371408Y982695D01*
X371687Y981651D01*
X371898Y980591D01*
X372039Y979519D01*
X372110Y978440D01*
X372110Y977360D01*
X12356Y361300D02*
X11672Y361367D01*
X10997Y361502D01*
X10339Y361701D01*
X9704Y361964D01*
X9097Y362289D01*
X8525Y362671D01*
X7993Y363107D01*
X7507Y363593D01*
X7071Y364125D01*
X6689Y364697D01*
X6364Y365304D01*
X6101Y365939D01*
X5902Y366597D01*
X5767Y367272D01*
X5700Y367956D01*
X5700Y368644D01*
X5767Y369328D01*
X5902Y370003D01*
X6101Y370661D01*
X6364Y371297D01*
X6689Y371903D01*
X7071Y372475D01*
X7507Y373007D01*
X7993Y373493D01*
X8525Y373929D01*
X9097Y374311D01*
X9704Y374636D01*
X10339Y374899D01*
X10997Y375098D01*
X11672Y375233D01*
X12356Y375300D01*
X13044Y375300D01*
X13728Y375233D01*
X14403Y375098D01*
X15061Y374899D01*
X15697Y374636D01*
X16303Y374311D01*
X16875Y373929D01*
X17407Y373493D01*
X17893Y373007D01*
X18329Y372475D01*
X18711Y371903D01*
X19036Y371297D01*
X19299Y370661D01*
X19498Y370003D01*
X19633Y369328D01*
X19700Y368644D01*
X19700Y367956D01*
X19633Y367272D01*
X19498Y366597D01*
X19299Y365939D01*
X19036Y365304D01*
X18711Y364697D01*
X18329Y364125D01*
X17893Y363593D01*
X17407Y363107D01*
X16875Y362671D01*
X16303Y362289D01*
X15697Y361964D01*
X15061Y361701D01*
X14403Y361502D01*
X13728Y361367D01*
X13044Y361300D01*
X12356Y361300D01*
X12356Y259700D02*
X11672Y259767D01*
X10997Y259902D01*
X10339Y260101D01*
X9704Y260364D01*
X9097Y260689D01*
X8525Y261071D01*
X7993Y261507D01*
X7507Y261993D01*
X7071Y262525D01*
X6689Y263097D01*
X6364Y263704D01*
X6101Y264339D01*
X5902Y264997D01*
X5767Y265672D01*
X5700Y266356D01*
X5700Y267044D01*
X5767Y267728D01*
X5902Y268403D01*
X6101Y269061D01*
X6364Y269697D01*
X6689Y270303D01*
X7071Y270875D01*
X7507Y271407D01*
X7993Y271893D01*
X8525Y272329D01*
X9097Y272711D01*
X9704Y273036D01*
X10339Y273299D01*
X10997Y273498D01*
X11672Y273633D01*
X12356Y273700D01*
X13044Y273700D01*
X13728Y273633D01*
X14403Y273498D01*
X15061Y273299D01*
X15697Y273036D01*
X16303Y272711D01*
X16875Y272329D01*
X17407Y271893D01*
X17893Y271407D01*
X18329Y270875D01*
X18711Y270303D01*
X19036Y269697D01*
X19299Y269061D01*
X19498Y268403D01*
X19633Y267728D01*
X19700Y267044D01*
X19700Y266356D01*
X19633Y265672D01*
X19498Y264997D01*
X19299Y264339D01*
X19036Y263704D01*
X18711Y263097D01*
X18329Y262525D01*
X17893Y261993D01*
X17407Y261507D01*
X16875Y261071D01*
X16303Y260689D01*
X15697Y260364D01*
X15061Y260101D01*
X14403Y259902D01*
X13728Y259767D01*
X13044Y259700D01*
X12356Y259700D01*
M02*
