G04 EAGLE Gerber RS-274X export*
G75*
%MOMM*%
%FSLAX34Y34*%
%LPD*%
%INSolderpaste Top*%
%IPPOS*%
%AMOC8*
5,1,8,0,0,1.08239X$1,22.5*%
G01*
%ADD10R,1.000000X1.100000*%
%ADD11R,1.100000X1.000000*%
%ADD12R,1.400000X3.000000*%
%ADD13R,1.400000X1.600000*%
%ADD14R,0.830000X0.630000*%
%ADD15R,0.630000X0.830000*%
%ADD16C,0.300000*%
%ADD17R,1.470000X1.270000*%
%ADD18R,4.600000X1.000000*%
%ADD19R,3.400000X1.600000*%
%ADD20R,1.200000X0.800000*%
%ADD21R,0.800000X0.900000*%
%ADD22R,1.524000X0.762000*%
%ADD23R,0.550000X1.200000*%
%ADD24R,1.270000X0.558800*%
%ADD25R,0.558800X1.270000*%
%ADD26R,1.219200X2.235200*%
%ADD27R,3.600000X2.200000*%
%ADD28C,0.450000*%
%ADD29R,3.000000X1.000000*%


D10*
X330200Y351400D03*
X330200Y334400D03*
D11*
X334400Y558800D03*
X351400Y558800D03*
X156600Y596900D03*
X173600Y596900D03*
X270900Y279400D03*
X287900Y279400D03*
X364100Y304800D03*
X347100Y304800D03*
D12*
X330200Y395100D03*
X330200Y443100D03*
D13*
X356900Y584200D03*
X328900Y584200D03*
D11*
X300600Y533400D03*
X283600Y533400D03*
D14*
X254000Y547300D03*
X254000Y570300D03*
D15*
X153600Y609600D03*
X176600Y609600D03*
D16*
X288600Y602170D02*
X295600Y602170D01*
X288600Y602170D02*
X288600Y609170D01*
X295600Y609170D01*
X295600Y602170D01*
X295600Y605020D02*
X288600Y605020D01*
X288600Y607870D02*
X295600Y607870D01*
X295600Y584630D02*
X288600Y584630D01*
X288600Y591630D01*
X295600Y591630D01*
X295600Y584630D01*
X295600Y587480D02*
X288600Y587480D01*
X288600Y590330D02*
X295600Y590330D01*
D17*
X279400Y308700D03*
X279400Y351700D03*
D16*
X335470Y219400D02*
X335470Y212400D01*
X335470Y219400D02*
X342470Y219400D01*
X342470Y212400D01*
X335470Y212400D01*
X335470Y215250D02*
X342470Y215250D01*
X342470Y218100D02*
X335470Y218100D01*
X317930Y219400D02*
X317930Y212400D01*
X317930Y219400D02*
X324930Y219400D01*
X324930Y212400D01*
X317930Y212400D01*
X317930Y215250D02*
X324930Y215250D01*
X324930Y218100D02*
X317930Y218100D01*
X335470Y194000D02*
X335470Y187000D01*
X335470Y194000D02*
X342470Y194000D01*
X342470Y187000D01*
X335470Y187000D01*
X335470Y189850D02*
X342470Y189850D01*
X342470Y192700D02*
X335470Y192700D01*
X317930Y194000D02*
X317930Y187000D01*
X317930Y194000D02*
X324930Y194000D01*
X324930Y187000D01*
X317930Y187000D01*
X317930Y189850D02*
X324930Y189850D01*
X324930Y192700D02*
X317930Y192700D01*
D18*
X85800Y589700D03*
X85800Y629700D03*
D19*
X33800Y565700D03*
X33800Y653700D03*
D18*
X85800Y609700D03*
D20*
X292100Y473600D03*
X292100Y491600D03*
D21*
X238100Y606900D03*
X219100Y606900D03*
X228600Y585900D03*
D11*
X351400Y508000D03*
X334400Y508000D03*
X321700Y241300D03*
X338700Y241300D03*
X321700Y165100D03*
X338700Y165100D03*
X173600Y584200D03*
X156600Y584200D03*
X283600Y558800D03*
X300600Y558800D03*
X156600Y571500D03*
X173600Y571500D03*
X283600Y508000D03*
X300600Y508000D03*
D10*
X266700Y605400D03*
X266700Y588400D03*
X203200Y410600D03*
X203200Y427600D03*
D11*
X245500Y508000D03*
X262500Y508000D03*
D22*
X86360Y69850D03*
X142240Y69850D03*
X86360Y31750D03*
X142240Y31750D03*
D23*
X212700Y571801D03*
X203200Y571801D03*
X193700Y571801D03*
X193700Y545799D03*
X212700Y545799D03*
D24*
X147574Y231200D03*
X147574Y223200D03*
X147574Y215200D03*
X147574Y207200D03*
X147574Y199200D03*
X147574Y191200D03*
X147574Y183200D03*
X147574Y175200D03*
D25*
X162500Y160274D03*
X170500Y160274D03*
X178500Y160274D03*
X186500Y160274D03*
X194500Y160274D03*
X202500Y160274D03*
X210500Y160274D03*
X218500Y160274D03*
D24*
X233426Y175200D03*
X233426Y183200D03*
X233426Y191200D03*
X233426Y199200D03*
X233426Y207200D03*
X233426Y215200D03*
X233426Y223200D03*
X233426Y231200D03*
D25*
X218500Y246126D03*
X210500Y246126D03*
X202500Y246126D03*
X194500Y246126D03*
X186500Y246126D03*
X178500Y246126D03*
X170500Y246126D03*
X162500Y246126D03*
D26*
X230886Y388112D03*
X254000Y388112D03*
X277114Y388112D03*
D27*
X254000Y450090D03*
D28*
X83475Y215200D02*
X68925Y215200D01*
X68925Y203200D02*
X83475Y203200D01*
X83475Y191200D02*
X68925Y191200D01*
D29*
X62700Y304800D03*
X62700Y279400D03*
X62700Y254000D03*
X62700Y330200D03*
X62700Y355600D03*
X62700Y381000D03*
D11*
X334400Y533400D03*
X351400Y533400D03*
M02*
