M48
;GenerationSoftware,Autodesk,EAGLE,9.6.2*%
;CreationDate,2020-12-03T22:26:15Z*%
FMAT,2
ICI,OFF
METRIC,TZ,000.000
T10C0.305
T9C0.350
T8C0.381
T7C1.016
T6C1.100
T5C1.200
T4C1.400
T3C2.100
T2C2.997
T1C3.302
%
G90
M71
T1
X35560Y97790
X2540Y2540
X35560Y2540
X2540Y97790
T2
X8160Y42290
X5160Y46990
X11160Y46990
T3
X21590Y86360
X24130Y68580
X31750Y68580
T4
X1270Y26670
X1270Y36830
T5
X14412Y95250
X18090Y95250
X21768Y95250
T6
X8890Y82480
X8890Y72390
T7
X26670Y6223
X29210Y6477
X29210Y3937
X26670Y3683
X24130Y6477
X24130Y3937
T8
X21590Y59690
X19989Y58343
X34290Y54610
X26826Y52484
X27940Y49530
T9
X35560Y33020
X13970Y27940
X15240Y26670
X16510Y27940
T10
X30480Y31750
X24130Y41910
X26670Y48260
X20320Y21590
X27940Y21590
X26670Y13970
X20320Y19050
X27940Y19050
X25400Y25400
X20320Y36830
X30480Y54610
X21590Y62230
X16510Y49530
X19050Y55880
X24130Y55880
X13589Y21590
X13589Y19939
X16443Y21590
X20320Y20320
X24130Y52070
X26670Y53876
X25400Y52070
X34290Y52070
X34290Y36830
X12700Y11430
X8890Y38100
X5080Y20320
X12700Y57150
M30