G04 EAGLE Gerber RS-274X export*
G75*
%MOMM*%
%FSLAX34Y34*%
%LPD*%
%INBottom Copper*%
%IPPOS*%
%AMOC8*
5,1,8,0,0,1.08239X$1,22.5*%
G01*
%ADD10C,4.318000*%
%ADD11R,2.032000X2.032000*%
%ADD12C,2.032000*%
%ADD13C,1.879600*%
%ADD14C,3.116000*%
%ADD15C,1.955800*%
%ADD16C,0.609600*%
%ADD17C,0.203200*%
%ADD18C,0.685800*%
%ADD19C,0.654800*%
%ADD20C,0.406400*%

G36*
X343140Y4075D02*
X343140Y4075D01*
X343214Y4075D01*
X343280Y4095D01*
X343349Y4105D01*
X343416Y4135D01*
X343486Y4155D01*
X343545Y4192D01*
X343608Y4221D01*
X343664Y4268D01*
X343726Y4308D01*
X343772Y4360D01*
X343825Y4404D01*
X343866Y4466D01*
X343915Y4521D01*
X343944Y4583D01*
X343983Y4641D01*
X344005Y4711D01*
X344036Y4778D01*
X344048Y4846D01*
X344068Y4912D01*
X344070Y4986D01*
X344082Y5058D01*
X344074Y5127D01*
X344076Y5196D01*
X344057Y5267D01*
X344048Y5341D01*
X344021Y5404D01*
X344004Y5471D01*
X343966Y5535D01*
X343938Y5602D01*
X343899Y5647D01*
X343859Y5716D01*
X343769Y5800D01*
X343720Y5858D01*
X338015Y10644D01*
X334029Y17549D01*
X332645Y25400D01*
X334029Y33251D01*
X338015Y40155D01*
X344122Y45280D01*
X351614Y48007D01*
X359586Y48007D01*
X367078Y45280D01*
X373185Y40156D01*
X375041Y36941D01*
X375053Y36926D01*
X375061Y36908D01*
X375140Y36814D01*
X375216Y36717D01*
X375232Y36706D01*
X375245Y36691D01*
X375347Y36622D01*
X375446Y36551D01*
X375465Y36544D01*
X375481Y36533D01*
X375599Y36496D01*
X375714Y36454D01*
X375734Y36453D01*
X375752Y36447D01*
X375875Y36444D01*
X375998Y36436D01*
X376017Y36441D01*
X376036Y36440D01*
X376155Y36471D01*
X376275Y36498D01*
X376293Y36507D01*
X376311Y36512D01*
X376417Y36574D01*
X376525Y36633D01*
X376539Y36647D01*
X376556Y36657D01*
X376640Y36747D01*
X376727Y36833D01*
X376737Y36850D01*
X376750Y36864D01*
X376806Y36974D01*
X376866Y37081D01*
X376871Y37100D01*
X376880Y37118D01*
X376892Y37190D01*
X376931Y37358D01*
X376929Y37409D01*
X376935Y37449D01*
X376935Y660400D01*
X376927Y660458D01*
X376929Y660516D01*
X376907Y660598D01*
X376895Y660682D01*
X376872Y660735D01*
X376857Y660791D01*
X376814Y660864D01*
X376779Y660941D01*
X376741Y660986D01*
X376712Y661036D01*
X376650Y661094D01*
X376596Y661158D01*
X376547Y661190D01*
X376504Y661230D01*
X376429Y661269D01*
X376359Y661316D01*
X376303Y661333D01*
X376251Y661360D01*
X376183Y661371D01*
X376088Y661401D01*
X375988Y661404D01*
X375920Y661415D01*
X5080Y661415D01*
X5022Y661407D01*
X4964Y661409D01*
X4882Y661387D01*
X4798Y661375D01*
X4745Y661352D01*
X4689Y661337D01*
X4616Y661294D01*
X4539Y661259D01*
X4494Y661221D01*
X4444Y661192D01*
X4386Y661130D01*
X4322Y661076D01*
X4290Y661027D01*
X4250Y660984D01*
X4211Y660909D01*
X4164Y660839D01*
X4147Y660783D01*
X4120Y660731D01*
X4109Y660663D01*
X4079Y660568D01*
X4076Y660468D01*
X4065Y660400D01*
X4065Y376327D01*
X4069Y376298D01*
X4066Y376269D01*
X4089Y376157D01*
X4105Y376045D01*
X4117Y376019D01*
X4122Y375990D01*
X4175Y375889D01*
X4221Y375786D01*
X4240Y375764D01*
X4253Y375737D01*
X4331Y375655D01*
X4404Y375569D01*
X4429Y375553D01*
X4449Y375531D01*
X4547Y375474D01*
X4641Y375411D01*
X4669Y375402D01*
X4694Y375388D01*
X4804Y375360D01*
X4912Y375326D01*
X4942Y375325D01*
X4970Y375318D01*
X5083Y375321D01*
X5196Y375318D01*
X5225Y375326D01*
X5254Y375327D01*
X5362Y375362D01*
X5471Y375390D01*
X5497Y375405D01*
X5525Y375414D01*
X5589Y375460D01*
X5716Y375535D01*
X5759Y375581D01*
X5798Y375609D01*
X7008Y376819D01*
X10701Y378349D01*
X14699Y378349D01*
X18392Y376819D01*
X21219Y373992D01*
X22749Y370299D01*
X22749Y366301D01*
X21219Y362608D01*
X18392Y359781D01*
X14699Y358251D01*
X10701Y358251D01*
X7008Y359781D01*
X5798Y360991D01*
X5774Y361009D01*
X5755Y361031D01*
X5661Y361094D01*
X5571Y361162D01*
X5543Y361172D01*
X5519Y361189D01*
X5411Y361223D01*
X5305Y361263D01*
X5276Y361266D01*
X5248Y361274D01*
X5134Y361277D01*
X5022Y361287D01*
X4993Y361281D01*
X4964Y361282D01*
X4854Y361253D01*
X4743Y361231D01*
X4717Y361217D01*
X4689Y361210D01*
X4591Y361152D01*
X4491Y361100D01*
X4469Y361080D01*
X4444Y361065D01*
X4367Y360982D01*
X4285Y360904D01*
X4270Y360879D01*
X4250Y360857D01*
X4198Y360757D01*
X4141Y360659D01*
X4134Y360630D01*
X4120Y360604D01*
X4107Y360527D01*
X4071Y360383D01*
X4073Y360321D01*
X4065Y360273D01*
X4065Y274727D01*
X4069Y274698D01*
X4066Y274669D01*
X4089Y274557D01*
X4105Y274445D01*
X4117Y274419D01*
X4122Y274390D01*
X4175Y274289D01*
X4221Y274186D01*
X4240Y274164D01*
X4253Y274137D01*
X4331Y274055D01*
X4404Y273969D01*
X4429Y273953D01*
X4449Y273931D01*
X4547Y273874D01*
X4641Y273811D01*
X4669Y273802D01*
X4694Y273788D01*
X4804Y273760D01*
X4912Y273726D01*
X4942Y273725D01*
X4970Y273718D01*
X5083Y273721D01*
X5196Y273718D01*
X5225Y273726D01*
X5254Y273727D01*
X5362Y273762D01*
X5471Y273790D01*
X5497Y273805D01*
X5525Y273814D01*
X5589Y273860D01*
X5716Y273935D01*
X5759Y273981D01*
X5798Y274009D01*
X7008Y275219D01*
X10701Y276749D01*
X14699Y276749D01*
X18392Y275219D01*
X21219Y272392D01*
X22749Y268699D01*
X22749Y264701D01*
X21219Y261008D01*
X18392Y258181D01*
X14699Y256651D01*
X10701Y256651D01*
X7008Y258181D01*
X5798Y259391D01*
X5774Y259409D01*
X5755Y259431D01*
X5661Y259494D01*
X5571Y259562D01*
X5543Y259572D01*
X5519Y259589D01*
X5411Y259623D01*
X5305Y259663D01*
X5276Y259666D01*
X5248Y259674D01*
X5134Y259677D01*
X5022Y259687D01*
X4993Y259681D01*
X4964Y259682D01*
X4854Y259653D01*
X4743Y259631D01*
X4717Y259617D01*
X4689Y259610D01*
X4591Y259552D01*
X4491Y259500D01*
X4469Y259480D01*
X4444Y259465D01*
X4367Y259382D01*
X4285Y259304D01*
X4270Y259279D01*
X4250Y259257D01*
X4198Y259157D01*
X4141Y259059D01*
X4134Y259030D01*
X4120Y259004D01*
X4107Y258927D01*
X4071Y258783D01*
X4073Y258721D01*
X4065Y258673D01*
X4065Y37449D01*
X4067Y37429D01*
X4065Y37410D01*
X4087Y37289D01*
X4105Y37167D01*
X4113Y37149D01*
X4116Y37130D01*
X4171Y37020D01*
X4221Y36908D01*
X4233Y36893D01*
X4242Y36875D01*
X4325Y36784D01*
X4404Y36691D01*
X4421Y36680D01*
X4434Y36665D01*
X4539Y36601D01*
X4641Y36533D01*
X4660Y36527D01*
X4676Y36517D01*
X4795Y36484D01*
X4912Y36447D01*
X4932Y36447D01*
X4951Y36442D01*
X5073Y36443D01*
X5196Y36440D01*
X5215Y36445D01*
X5235Y36445D01*
X5353Y36481D01*
X5471Y36512D01*
X5488Y36522D01*
X5507Y36528D01*
X5610Y36594D01*
X5716Y36657D01*
X5729Y36671D01*
X5746Y36682D01*
X5792Y36739D01*
X5910Y36864D01*
X5934Y36910D01*
X5959Y36941D01*
X7815Y40156D01*
X13922Y45280D01*
X21414Y48007D01*
X29386Y48007D01*
X36878Y45280D01*
X42985Y40156D01*
X46971Y33251D01*
X48355Y25400D01*
X46971Y17549D01*
X42985Y10645D01*
X37280Y5858D01*
X37231Y5803D01*
X37175Y5755D01*
X37136Y5698D01*
X37090Y5646D01*
X37058Y5580D01*
X37017Y5519D01*
X36996Y5453D01*
X36966Y5390D01*
X36954Y5318D01*
X36932Y5248D01*
X36930Y5179D01*
X36918Y5110D01*
X36926Y5037D01*
X36924Y4964D01*
X36942Y4897D01*
X36949Y4828D01*
X36977Y4760D01*
X36996Y4689D01*
X37031Y4629D01*
X37058Y4565D01*
X37104Y4507D01*
X37141Y4444D01*
X37192Y4397D01*
X37235Y4343D01*
X37295Y4300D01*
X37349Y4250D01*
X37410Y4218D01*
X37467Y4178D01*
X37536Y4154D01*
X37602Y4120D01*
X37660Y4110D01*
X37735Y4084D01*
X37857Y4077D01*
X37933Y4065D01*
X343067Y4065D01*
X343140Y4075D01*
G37*
%LPC*%
G36*
X264224Y24383D02*
X264224Y24383D01*
X259649Y26278D01*
X256148Y29779D01*
X254412Y33971D01*
X254397Y33996D01*
X254388Y34024D01*
X254325Y34119D01*
X254267Y34216D01*
X254246Y34236D01*
X254230Y34261D01*
X254143Y34334D01*
X254061Y34411D01*
X254035Y34425D01*
X254012Y34444D01*
X253909Y34490D01*
X253808Y34541D01*
X253779Y34547D01*
X253752Y34559D01*
X253640Y34575D01*
X253529Y34596D01*
X253500Y34594D01*
X253471Y34598D01*
X253359Y34582D01*
X253246Y34572D01*
X253218Y34561D01*
X253189Y34557D01*
X253086Y34511D01*
X252981Y34470D01*
X252957Y34452D01*
X252930Y34440D01*
X252844Y34367D01*
X252754Y34298D01*
X252736Y34275D01*
X252714Y34256D01*
X252672Y34189D01*
X252584Y34071D01*
X252562Y34012D01*
X252536Y33971D01*
X251852Y32319D01*
X248351Y28818D01*
X243776Y26923D01*
X238824Y26923D01*
X234249Y28818D01*
X230748Y32319D01*
X228853Y36894D01*
X228853Y41846D01*
X230748Y46421D01*
X234249Y49922D01*
X237171Y51132D01*
X237196Y51147D01*
X237224Y51156D01*
X237319Y51219D01*
X237416Y51277D01*
X237436Y51298D01*
X237461Y51314D01*
X237534Y51401D01*
X237611Y51483D01*
X237625Y51509D01*
X237644Y51532D01*
X237690Y51635D01*
X237741Y51736D01*
X237747Y51765D01*
X237759Y51792D01*
X237775Y51904D01*
X237796Y52015D01*
X237794Y52044D01*
X237798Y52073D01*
X237782Y52185D01*
X237772Y52298D01*
X237761Y52325D01*
X237757Y52354D01*
X237711Y52458D01*
X237670Y52563D01*
X237652Y52587D01*
X237640Y52614D01*
X237567Y52700D01*
X237498Y52790D01*
X237475Y52808D01*
X237456Y52830D01*
X237389Y52872D01*
X237271Y52960D01*
X237212Y52982D01*
X237171Y53008D01*
X234249Y54218D01*
X230748Y57719D01*
X228853Y62294D01*
X228853Y67246D01*
X230748Y71821D01*
X234249Y75322D01*
X235593Y75878D01*
X235594Y75879D01*
X235595Y75879D01*
X235712Y75949D01*
X235837Y76023D01*
X235839Y76024D01*
X235840Y76025D01*
X235935Y76126D01*
X236033Y76229D01*
X236033Y76231D01*
X236034Y76232D01*
X236099Y76358D01*
X236163Y76482D01*
X236163Y76484D01*
X236164Y76485D01*
X236166Y76500D01*
X236218Y76761D01*
X236215Y76791D01*
X236219Y76816D01*
X236219Y115311D01*
X236993Y117178D01*
X238565Y118750D01*
X260373Y140558D01*
X260391Y140583D01*
X260415Y140603D01*
X260456Y140669D01*
X260544Y140785D01*
X260567Y140845D01*
X260593Y140887D01*
X261531Y143154D01*
X263246Y144869D01*
X265513Y145807D01*
X265539Y145823D01*
X265569Y145832D01*
X265633Y145878D01*
X265758Y145952D01*
X265802Y145999D01*
X265842Y146027D01*
X312122Y192307D01*
X312174Y192377D01*
X312234Y192441D01*
X312260Y192490D01*
X312293Y192534D01*
X312324Y192616D01*
X312364Y192694D01*
X312372Y192742D01*
X312394Y192800D01*
X312406Y192948D01*
X312419Y193025D01*
X312419Y302275D01*
X312407Y302362D01*
X312404Y302449D01*
X312387Y302502D01*
X312379Y302556D01*
X312344Y302636D01*
X312317Y302719D01*
X312289Y302759D01*
X312263Y302816D01*
X312167Y302929D01*
X312122Y302993D01*
X303942Y311173D01*
X303917Y311191D01*
X303897Y311215D01*
X303831Y311256D01*
X303715Y311344D01*
X303655Y311367D01*
X303613Y311393D01*
X301346Y312331D01*
X299631Y314046D01*
X298679Y316346D01*
X298621Y316444D01*
X298568Y316546D01*
X298549Y316566D01*
X298535Y316590D01*
X298451Y316669D01*
X298372Y316752D01*
X298348Y316767D01*
X298328Y316786D01*
X298226Y316838D01*
X298127Y316896D01*
X298100Y316903D01*
X298075Y316916D01*
X297962Y316938D01*
X297851Y316966D01*
X297824Y316965D01*
X297796Y316971D01*
X297682Y316961D01*
X297567Y316957D01*
X297541Y316949D01*
X297513Y316946D01*
X297406Y316905D01*
X297297Y316870D01*
X297276Y316855D01*
X297248Y316844D01*
X297035Y316684D01*
X297023Y316675D01*
X296462Y316114D01*
X296410Y316044D01*
X296350Y315980D01*
X296324Y315931D01*
X296291Y315887D01*
X296260Y315805D01*
X296220Y315727D01*
X296212Y315679D01*
X296190Y315621D01*
X296178Y315473D01*
X296165Y315396D01*
X296165Y269275D01*
X258156Y231266D01*
X245585Y231266D01*
X214514Y262338D01*
X214444Y262390D01*
X214380Y262450D01*
X214331Y262476D01*
X214286Y262509D01*
X214205Y262540D01*
X214127Y262580D01*
X214079Y262588D01*
X214021Y262610D01*
X213873Y262622D01*
X213796Y262635D01*
X157698Y262635D01*
X157611Y262623D01*
X157523Y262620D01*
X157471Y262603D01*
X157416Y262595D01*
X157336Y262560D01*
X157253Y262533D01*
X157214Y262505D01*
X157157Y262479D01*
X157043Y262383D01*
X156980Y262338D01*
X155982Y261340D01*
X153658Y260377D01*
X151142Y260377D01*
X148818Y261340D01*
X147040Y263118D01*
X146077Y265442D01*
X146077Y267958D01*
X147040Y270282D01*
X148818Y272060D01*
X151142Y273023D01*
X153658Y273023D01*
X155982Y272060D01*
X156980Y271062D01*
X157049Y271010D01*
X157113Y270950D01*
X157163Y270924D01*
X157207Y270891D01*
X157289Y270860D01*
X157366Y270820D01*
X157414Y270812D01*
X157472Y270790D01*
X157620Y270778D01*
X157698Y270765D01*
X217584Y270765D01*
X248655Y239693D01*
X248725Y239641D01*
X248789Y239581D01*
X248838Y239555D01*
X248883Y239522D01*
X248964Y239491D01*
X249042Y239451D01*
X249090Y239443D01*
X249148Y239421D01*
X249296Y239409D01*
X249373Y239396D01*
X254368Y239396D01*
X254455Y239408D01*
X254542Y239411D01*
X254595Y239428D01*
X254650Y239436D01*
X254730Y239471D01*
X254813Y239498D01*
X254852Y239526D01*
X254909Y239552D01*
X255022Y239648D01*
X255086Y239693D01*
X287738Y272345D01*
X287790Y272415D01*
X287850Y272479D01*
X287876Y272528D01*
X287909Y272572D01*
X287940Y272654D01*
X287980Y272732D01*
X287988Y272779D01*
X288010Y272838D01*
X288017Y272926D01*
X288021Y272938D01*
X288023Y272987D01*
X288035Y273063D01*
X288035Y319184D01*
X290714Y321862D01*
X300438Y331586D01*
X303116Y334265D01*
X350302Y334265D01*
X350389Y334277D01*
X350477Y334280D01*
X350529Y334297D01*
X350584Y334305D01*
X350664Y334340D01*
X350747Y334367D01*
X350786Y334395D01*
X350843Y334421D01*
X350957Y334517D01*
X351020Y334562D01*
X352018Y335560D01*
X354342Y336523D01*
X356858Y336523D01*
X359182Y335560D01*
X360960Y333782D01*
X361923Y331458D01*
X361923Y328942D01*
X360960Y326618D01*
X359182Y324840D01*
X356858Y323877D01*
X354342Y323877D01*
X352018Y324840D01*
X351020Y325838D01*
X350951Y325890D01*
X350887Y325950D01*
X350837Y325976D01*
X350793Y326009D01*
X350711Y326040D01*
X350634Y326080D01*
X350586Y326088D01*
X350528Y326110D01*
X350380Y326122D01*
X350302Y326135D01*
X306904Y326135D01*
X306818Y326123D01*
X306730Y326120D01*
X306678Y326103D01*
X306623Y326095D01*
X306543Y326060D01*
X306460Y326033D01*
X306420Y326005D01*
X306363Y325979D01*
X306250Y325883D01*
X306186Y325838D01*
X305625Y325277D01*
X305556Y325185D01*
X305482Y325097D01*
X305471Y325072D01*
X305454Y325050D01*
X305413Y324942D01*
X305367Y324837D01*
X305363Y324810D01*
X305353Y324784D01*
X305343Y324669D01*
X305328Y324556D01*
X305332Y324528D01*
X305329Y324501D01*
X305352Y324388D01*
X305368Y324274D01*
X305380Y324249D01*
X305385Y324222D01*
X305438Y324120D01*
X305486Y324015D01*
X305503Y323994D01*
X305516Y323970D01*
X305595Y323886D01*
X305670Y323799D01*
X305691Y323786D01*
X305712Y323763D01*
X305942Y323629D01*
X305954Y323621D01*
X305957Y323620D01*
X308254Y322669D01*
X309969Y320954D01*
X310907Y318687D01*
X310923Y318661D01*
X310932Y318631D01*
X310978Y318567D01*
X311052Y318442D01*
X311099Y318398D01*
X311127Y318358D01*
X320235Y309250D01*
X321807Y307678D01*
X322581Y305811D01*
X322581Y189489D01*
X321807Y187622D01*
X273027Y138842D01*
X273009Y138817D01*
X272985Y138797D01*
X272943Y138731D01*
X272856Y138615D01*
X272834Y138555D01*
X272807Y138513D01*
X271869Y136246D01*
X270154Y134531D01*
X267887Y133593D01*
X267861Y133577D01*
X267831Y133568D01*
X267767Y133522D01*
X267642Y133448D01*
X267598Y133401D01*
X267558Y133373D01*
X246678Y112493D01*
X246626Y112423D01*
X246566Y112359D01*
X246540Y112310D01*
X246507Y112266D01*
X246476Y112184D01*
X246436Y112106D01*
X246428Y112058D01*
X246406Y112000D01*
X246394Y111852D01*
X246381Y111775D01*
X246381Y76816D01*
X246381Y76815D01*
X246381Y76813D01*
X246401Y76672D01*
X246421Y76535D01*
X246421Y76533D01*
X246421Y76532D01*
X246482Y76398D01*
X246537Y76275D01*
X246538Y76274D01*
X246539Y76273D01*
X246630Y76165D01*
X246720Y76058D01*
X246722Y76057D01*
X246723Y76056D01*
X246736Y76048D01*
X246957Y75901D01*
X246986Y75891D01*
X247007Y75878D01*
X248351Y75322D01*
X251852Y71821D01*
X253588Y67629D01*
X253603Y67604D01*
X253612Y67576D01*
X253675Y67481D01*
X253733Y67384D01*
X253754Y67364D01*
X253770Y67339D01*
X253857Y67266D01*
X253939Y67189D01*
X253965Y67175D01*
X253988Y67156D01*
X254091Y67110D01*
X254192Y67059D01*
X254221Y67053D01*
X254248Y67041D01*
X254360Y67025D01*
X254471Y67004D01*
X254500Y67006D01*
X254529Y67002D01*
X254641Y67018D01*
X254754Y67028D01*
X254782Y67039D01*
X254811Y67043D01*
X254914Y67089D01*
X255019Y67130D01*
X255043Y67148D01*
X255070Y67160D01*
X255156Y67233D01*
X255246Y67302D01*
X255264Y67325D01*
X255286Y67344D01*
X255326Y67407D01*
X255329Y67412D01*
X255416Y67529D01*
X255429Y67562D01*
X255445Y67587D01*
X255452Y67610D01*
X255464Y67629D01*
X256148Y69281D01*
X259649Y72782D01*
X264224Y74677D01*
X269176Y74677D01*
X273751Y72782D01*
X277252Y69281D01*
X278388Y66537D01*
X278391Y66532D01*
X278393Y66526D01*
X278464Y66409D01*
X278533Y66293D01*
X278537Y66288D01*
X278540Y66283D01*
X278641Y66191D01*
X278739Y66097D01*
X278745Y66095D01*
X278749Y66090D01*
X278871Y66030D01*
X278992Y65967D01*
X278998Y65966D01*
X279004Y65963D01*
X279137Y65939D01*
X279271Y65912D01*
X279277Y65913D01*
X279283Y65912D01*
X279420Y65925D01*
X279554Y65937D01*
X279560Y65939D01*
X279566Y65939D01*
X279693Y65990D01*
X279819Y66039D01*
X279824Y66042D01*
X279830Y66045D01*
X279937Y66128D01*
X280046Y66210D01*
X280050Y66215D01*
X280055Y66219D01*
X280135Y66329D01*
X280216Y66438D01*
X280219Y66444D01*
X280222Y66449D01*
X280236Y66490D01*
X280317Y66704D01*
X280320Y66740D01*
X280329Y66767D01*
X280455Y67566D01*
X281036Y69353D01*
X281889Y71027D01*
X282994Y72548D01*
X284322Y73876D01*
X285843Y74981D01*
X287517Y75834D01*
X289304Y76415D01*
X290069Y76536D01*
X290069Y65786D01*
X290077Y65728D01*
X290075Y65670D01*
X290097Y65588D01*
X290109Y65505D01*
X290133Y65451D01*
X290147Y65395D01*
X290190Y65322D01*
X290225Y65245D01*
X290263Y65201D01*
X290293Y65150D01*
X290354Y65093D01*
X290409Y65028D01*
X290457Y64996D01*
X290500Y64956D01*
X290575Y64917D01*
X290645Y64871D01*
X290701Y64853D01*
X290753Y64826D01*
X290821Y64815D01*
X290916Y64785D01*
X291016Y64782D01*
X291084Y64771D01*
X292101Y64771D01*
X292101Y63754D01*
X292109Y63696D01*
X292108Y63638D01*
X292129Y63556D01*
X292141Y63473D01*
X292165Y63419D01*
X292179Y63363D01*
X292222Y63290D01*
X292257Y63213D01*
X292295Y63168D01*
X292325Y63118D01*
X292386Y63060D01*
X292441Y62996D01*
X292489Y62964D01*
X292532Y62924D01*
X292607Y62885D01*
X292677Y62839D01*
X292733Y62821D01*
X292785Y62794D01*
X292853Y62783D01*
X292948Y62753D01*
X293048Y62750D01*
X293116Y62739D01*
X303866Y62739D01*
X303745Y61974D01*
X303164Y60187D01*
X302311Y58513D01*
X301206Y56992D01*
X299878Y55664D01*
X298357Y54559D01*
X296683Y53706D01*
X295563Y53342D01*
X295501Y53312D01*
X295435Y53291D01*
X295374Y53250D01*
X295308Y53217D01*
X295257Y53171D01*
X295199Y53132D01*
X295152Y53076D01*
X295097Y53027D01*
X295061Y52968D01*
X295016Y52915D01*
X294986Y52848D01*
X294947Y52785D01*
X294929Y52718D01*
X294901Y52655D01*
X294891Y52582D01*
X294871Y52511D01*
X294871Y52442D01*
X294862Y52373D01*
X294872Y52301D01*
X294873Y52227D01*
X294893Y52160D01*
X294902Y52092D01*
X294933Y52025D01*
X294954Y51954D01*
X294991Y51896D01*
X295020Y51833D01*
X295067Y51777D01*
X295107Y51715D01*
X295159Y51669D01*
X295204Y51617D01*
X295257Y51584D01*
X295321Y51527D01*
X295425Y51478D01*
X295489Y51439D01*
X299151Y49922D01*
X302652Y46421D01*
X304547Y41846D01*
X304547Y36894D01*
X302652Y32319D01*
X299151Y28818D01*
X294576Y26923D01*
X289624Y26923D01*
X285049Y28818D01*
X281548Y32319D01*
X280864Y33971D01*
X280849Y33996D01*
X280840Y34024D01*
X280777Y34119D01*
X280720Y34216D01*
X280698Y34236D01*
X280682Y34261D01*
X280595Y34334D01*
X280513Y34411D01*
X280487Y34425D01*
X280464Y34444D01*
X280361Y34490D01*
X280260Y34541D01*
X280231Y34547D01*
X280205Y34559D01*
X280092Y34575D01*
X279981Y34596D01*
X279952Y34594D01*
X279923Y34598D01*
X279811Y34582D01*
X279698Y34572D01*
X279671Y34561D01*
X279642Y34557D01*
X279539Y34511D01*
X279433Y34470D01*
X279409Y34452D01*
X279382Y34440D01*
X279296Y34367D01*
X279206Y34298D01*
X279188Y34275D01*
X279166Y34256D01*
X279124Y34189D01*
X279036Y34071D01*
X279014Y34012D01*
X278988Y33971D01*
X277252Y29779D01*
X273751Y26278D01*
X269176Y24383D01*
X264224Y24383D01*
G37*
%LPD*%
%LPC*%
G36*
X108356Y445261D02*
X108356Y445261D01*
X102090Y446940D01*
X96471Y450184D01*
X91884Y454771D01*
X88640Y460390D01*
X86961Y466656D01*
X86961Y473144D01*
X88640Y479410D01*
X91884Y485029D01*
X96471Y489616D01*
X102090Y492860D01*
X108356Y494539D01*
X114844Y494539D01*
X121110Y492860D01*
X126729Y489616D01*
X131316Y485029D01*
X134560Y479410D01*
X136239Y473144D01*
X136239Y466656D01*
X134560Y460390D01*
X131316Y454771D01*
X126729Y450184D01*
X121110Y446940D01*
X114844Y445261D01*
X108356Y445261D01*
G37*
%LPD*%
%LPC*%
G36*
X163887Y489203D02*
X163887Y489203D01*
X161646Y490131D01*
X159931Y491846D01*
X159003Y494087D01*
X159003Y496513D01*
X159931Y498754D01*
X160738Y499560D01*
X160790Y499630D01*
X160850Y499694D01*
X160876Y499743D01*
X160909Y499787D01*
X160940Y499869D01*
X160980Y499947D01*
X160988Y499994D01*
X161010Y500053D01*
X161022Y500201D01*
X161035Y500278D01*
X161035Y573184D01*
X209506Y621654D01*
X209517Y621669D01*
X209526Y621676D01*
X209550Y621713D01*
X209558Y621724D01*
X209618Y621788D01*
X209644Y621837D01*
X209677Y621882D01*
X209708Y621963D01*
X209748Y622041D01*
X209756Y622089D01*
X209778Y622147D01*
X209790Y622295D01*
X209803Y622372D01*
X209803Y623513D01*
X210731Y625754D01*
X212446Y627469D01*
X214687Y628397D01*
X217113Y628397D01*
X219354Y627469D01*
X221069Y625754D01*
X221997Y623513D01*
X221997Y621087D01*
X221069Y618846D01*
X219354Y617131D01*
X217113Y616203D01*
X215972Y616203D01*
X215886Y616191D01*
X215798Y616188D01*
X215746Y616171D01*
X215691Y616163D01*
X215611Y616128D01*
X215528Y616101D01*
X215488Y616073D01*
X215431Y616047D01*
X215318Y615951D01*
X215254Y615906D01*
X169462Y570114D01*
X169410Y570044D01*
X169350Y569980D01*
X169324Y569931D01*
X169291Y569886D01*
X169260Y569805D01*
X169220Y569727D01*
X169212Y569679D01*
X169190Y569621D01*
X169178Y569473D01*
X169165Y569396D01*
X169165Y500278D01*
X169177Y500191D01*
X169180Y500104D01*
X169197Y500051D01*
X169205Y499996D01*
X169240Y499917D01*
X169267Y499833D01*
X169295Y499794D01*
X169321Y499737D01*
X169417Y499624D01*
X169462Y499560D01*
X170269Y498754D01*
X171197Y496513D01*
X171197Y494087D01*
X170269Y491846D01*
X168554Y490131D01*
X166313Y489203D01*
X163887Y489203D01*
G37*
%LPD*%
%LPC*%
G36*
X252787Y247903D02*
X252787Y247903D01*
X250546Y248831D01*
X248831Y250546D01*
X247903Y252787D01*
X247903Y255213D01*
X248831Y257454D01*
X249638Y258260D01*
X249690Y258330D01*
X249750Y258394D01*
X249776Y258443D01*
X249809Y258487D01*
X249840Y258569D01*
X249880Y258647D01*
X249888Y258694D01*
X249910Y258753D01*
X249922Y258901D01*
X249935Y258978D01*
X249935Y315396D01*
X249923Y315482D01*
X249920Y315570D01*
X249903Y315623D01*
X249895Y315677D01*
X249860Y315757D01*
X249833Y315840D01*
X249805Y315880D01*
X249779Y315937D01*
X249683Y316050D01*
X249638Y316114D01*
X203846Y361906D01*
X203776Y361958D01*
X203712Y362018D01*
X203663Y362044D01*
X203618Y362077D01*
X203537Y362108D01*
X203459Y362148D01*
X203411Y362156D01*
X203353Y362178D01*
X203205Y362190D01*
X203128Y362203D01*
X201987Y362203D01*
X199746Y363131D01*
X198031Y364846D01*
X197103Y367087D01*
X197103Y369513D01*
X198031Y371754D01*
X199746Y373469D01*
X201987Y374397D01*
X204413Y374397D01*
X206654Y373469D01*
X208369Y371754D01*
X209297Y369513D01*
X209297Y368372D01*
X209309Y368286D01*
X209312Y368198D01*
X209329Y368146D01*
X209337Y368091D01*
X209372Y368011D01*
X209399Y367928D01*
X209427Y367888D01*
X209453Y367831D01*
X209549Y367718D01*
X209594Y367654D01*
X255386Y321862D01*
X258065Y319184D01*
X258065Y258978D01*
X258077Y258891D01*
X258080Y258804D01*
X258097Y258751D01*
X258105Y258696D01*
X258140Y258617D01*
X258167Y258533D01*
X258195Y258494D01*
X258221Y258437D01*
X258317Y258324D01*
X258362Y258260D01*
X259169Y257454D01*
X260097Y255213D01*
X260097Y252787D01*
X259169Y250546D01*
X257454Y248831D01*
X255213Y247903D01*
X252787Y247903D01*
G37*
%LPD*%
%LPC*%
G36*
X240087Y413003D02*
X240087Y413003D01*
X237846Y413931D01*
X236131Y415646D01*
X235203Y417887D01*
X235203Y420313D01*
X236131Y422554D01*
X237846Y424269D01*
X240087Y425197D01*
X242513Y425197D01*
X244754Y424269D01*
X245560Y423462D01*
X245630Y423410D01*
X245694Y423350D01*
X245743Y423324D01*
X245787Y423291D01*
X245869Y423260D01*
X245947Y423220D01*
X245994Y423212D01*
X246053Y423190D01*
X246201Y423178D01*
X246278Y423165D01*
X264596Y423165D01*
X264682Y423177D01*
X264770Y423180D01*
X264822Y423197D01*
X264877Y423205D01*
X264957Y423240D01*
X265040Y423267D01*
X265080Y423295D01*
X265137Y423321D01*
X265250Y423417D01*
X265314Y423462D01*
X275038Y433186D01*
X275090Y433256D01*
X275150Y433320D01*
X275176Y433369D01*
X275209Y433414D01*
X275240Y433495D01*
X275280Y433573D01*
X275288Y433621D01*
X275310Y433679D01*
X275322Y433827D01*
X275335Y433904D01*
X275335Y467796D01*
X275323Y467882D01*
X275320Y467970D01*
X275303Y468022D01*
X275295Y468077D01*
X275260Y468157D01*
X275233Y468240D01*
X275205Y468280D01*
X275179Y468337D01*
X275083Y468450D01*
X275038Y468514D01*
X267346Y476206D01*
X267276Y476258D01*
X267212Y476318D01*
X267163Y476344D01*
X267118Y476377D01*
X267037Y476408D01*
X266959Y476448D01*
X266911Y476456D01*
X266853Y476478D01*
X266705Y476490D01*
X266628Y476503D01*
X265487Y476503D01*
X263246Y477431D01*
X261531Y479146D01*
X260603Y481387D01*
X260603Y483813D01*
X261531Y486054D01*
X263246Y487769D01*
X265487Y488697D01*
X267913Y488697D01*
X270154Y487769D01*
X271869Y486054D01*
X272797Y483813D01*
X272797Y482672D01*
X272809Y482586D01*
X272812Y482498D01*
X272829Y482446D01*
X272837Y482391D01*
X272872Y482311D01*
X272899Y482228D01*
X272927Y482188D01*
X272953Y482131D01*
X273049Y482018D01*
X273094Y481954D01*
X283465Y471584D01*
X283465Y430116D01*
X268384Y415035D01*
X246278Y415035D01*
X246191Y415023D01*
X246104Y415020D01*
X246051Y415003D01*
X245996Y414995D01*
X245917Y414960D01*
X245833Y414933D01*
X245794Y414905D01*
X245737Y414879D01*
X245624Y414783D01*
X245560Y414738D01*
X244754Y413931D01*
X242513Y413003D01*
X240087Y413003D01*
G37*
%LPD*%
%LPC*%
G36*
X201987Y209803D02*
X201987Y209803D01*
X199746Y210731D01*
X198031Y212446D01*
X197103Y214687D01*
X197103Y217113D01*
X198031Y219354D01*
X199746Y221069D01*
X201987Y221997D01*
X204413Y221997D01*
X206654Y221069D01*
X207460Y220262D01*
X207530Y220210D01*
X207594Y220150D01*
X207643Y220124D01*
X207687Y220091D01*
X207769Y220060D01*
X207847Y220020D01*
X207894Y220012D01*
X207953Y219990D01*
X208101Y219978D01*
X208178Y219965D01*
X274422Y219965D01*
X274509Y219977D01*
X274596Y219980D01*
X274649Y219997D01*
X274704Y220005D01*
X274783Y220040D01*
X274867Y220067D01*
X274906Y220095D01*
X274963Y220121D01*
X275076Y220217D01*
X275140Y220262D01*
X275946Y221069D01*
X278187Y221997D01*
X280613Y221997D01*
X282854Y221069D01*
X284569Y219354D01*
X285497Y217113D01*
X285497Y214687D01*
X284569Y212446D01*
X282854Y210731D01*
X280613Y209803D01*
X278187Y209803D01*
X275946Y210731D01*
X275140Y211538D01*
X275070Y211590D01*
X275006Y211650D01*
X274957Y211676D01*
X274913Y211709D01*
X274831Y211740D01*
X274753Y211780D01*
X274706Y211788D01*
X274647Y211810D01*
X274499Y211822D01*
X274422Y211835D01*
X208178Y211835D01*
X208091Y211823D01*
X208004Y211820D01*
X207951Y211803D01*
X207896Y211795D01*
X207817Y211760D01*
X207733Y211733D01*
X207694Y211705D01*
X207637Y211679D01*
X207524Y211583D01*
X207460Y211538D01*
X206654Y210731D01*
X204413Y209803D01*
X201987Y209803D01*
G37*
%LPD*%
%LPC*%
G36*
X201987Y184403D02*
X201987Y184403D01*
X199746Y185331D01*
X198031Y187046D01*
X197103Y189287D01*
X197103Y191713D01*
X198031Y193954D01*
X199746Y195669D01*
X201987Y196597D01*
X204413Y196597D01*
X206654Y195669D01*
X207460Y194862D01*
X207530Y194810D01*
X207594Y194750D01*
X207643Y194724D01*
X207687Y194691D01*
X207769Y194660D01*
X207847Y194620D01*
X207894Y194612D01*
X207953Y194590D01*
X208101Y194578D01*
X208178Y194565D01*
X274422Y194565D01*
X274509Y194577D01*
X274596Y194580D01*
X274649Y194597D01*
X274704Y194605D01*
X274783Y194640D01*
X274867Y194667D01*
X274906Y194695D01*
X274963Y194721D01*
X275076Y194817D01*
X275140Y194862D01*
X275946Y195669D01*
X278187Y196597D01*
X280613Y196597D01*
X282854Y195669D01*
X284569Y193954D01*
X285497Y191713D01*
X285497Y189287D01*
X284569Y187046D01*
X282854Y185331D01*
X280613Y184403D01*
X278187Y184403D01*
X275946Y185331D01*
X275140Y186138D01*
X275070Y186190D01*
X275006Y186250D01*
X274957Y186276D01*
X274913Y186309D01*
X274831Y186340D01*
X274753Y186380D01*
X274706Y186388D01*
X274647Y186410D01*
X274499Y186422D01*
X274422Y186435D01*
X208178Y186435D01*
X208091Y186423D01*
X208004Y186420D01*
X207951Y186403D01*
X207896Y186395D01*
X207817Y186360D01*
X207733Y186333D01*
X207694Y186305D01*
X207637Y186279D01*
X207524Y186183D01*
X207460Y186138D01*
X206654Y185331D01*
X204413Y184403D01*
X201987Y184403D01*
G37*
%LPD*%
%LPC*%
G36*
X189287Y552703D02*
X189287Y552703D01*
X187046Y553631D01*
X185331Y555346D01*
X184403Y557587D01*
X184403Y560013D01*
X185331Y562254D01*
X187046Y563969D01*
X189287Y564897D01*
X191713Y564897D01*
X193954Y563969D01*
X194760Y563162D01*
X194830Y563110D01*
X194894Y563050D01*
X194943Y563024D01*
X194987Y562991D01*
X195069Y562960D01*
X195147Y562920D01*
X195194Y562912D01*
X195253Y562890D01*
X195401Y562878D01*
X195478Y562865D01*
X236322Y562865D01*
X236409Y562877D01*
X236496Y562880D01*
X236549Y562897D01*
X236604Y562905D01*
X236683Y562940D01*
X236767Y562967D01*
X236806Y562995D01*
X236863Y563021D01*
X236976Y563117D01*
X237040Y563162D01*
X237846Y563969D01*
X240087Y564897D01*
X242513Y564897D01*
X244754Y563969D01*
X246469Y562254D01*
X247397Y560013D01*
X247397Y557587D01*
X246469Y555346D01*
X244754Y553631D01*
X242513Y552703D01*
X240087Y552703D01*
X237846Y553631D01*
X237040Y554438D01*
X236970Y554490D01*
X236906Y554550D01*
X236857Y554576D01*
X236813Y554609D01*
X236731Y554640D01*
X236653Y554680D01*
X236606Y554688D01*
X236547Y554710D01*
X236399Y554722D01*
X236322Y554735D01*
X195478Y554735D01*
X195391Y554723D01*
X195304Y554720D01*
X195251Y554703D01*
X195196Y554695D01*
X195117Y554660D01*
X195033Y554633D01*
X194994Y554605D01*
X194937Y554579D01*
X194824Y554483D01*
X194760Y554438D01*
X193954Y553631D01*
X191713Y552703D01*
X189287Y552703D01*
G37*
%LPD*%
%LPC*%
G36*
X341612Y539622D02*
X341612Y539622D01*
X339231Y540608D01*
X338101Y541738D01*
X338031Y541790D01*
X337967Y541850D01*
X337918Y541876D01*
X337874Y541909D01*
X337792Y541940D01*
X337714Y541980D01*
X337667Y541988D01*
X337608Y542010D01*
X337461Y542022D01*
X337383Y542035D01*
X309778Y542035D01*
X309691Y542023D01*
X309604Y542020D01*
X309551Y542003D01*
X309496Y541995D01*
X309417Y541960D01*
X309333Y541933D01*
X309294Y541905D01*
X309237Y541879D01*
X309124Y541783D01*
X309060Y541738D01*
X308254Y540931D01*
X306013Y540003D01*
X303587Y540003D01*
X301346Y540931D01*
X299631Y542646D01*
X298703Y544887D01*
X298703Y547313D01*
X299631Y549554D01*
X301346Y551269D01*
X303587Y552197D01*
X306013Y552197D01*
X308254Y551269D01*
X309060Y550462D01*
X309130Y550410D01*
X309194Y550350D01*
X309243Y550324D01*
X309287Y550291D01*
X309369Y550260D01*
X309447Y550220D01*
X309494Y550212D01*
X309553Y550190D01*
X309701Y550178D01*
X309778Y550165D01*
X337383Y550165D01*
X337470Y550177D01*
X337557Y550180D01*
X337610Y550197D01*
X337665Y550205D01*
X337745Y550240D01*
X337828Y550267D01*
X337867Y550295D01*
X337924Y550321D01*
X338037Y550417D01*
X338101Y550462D01*
X339231Y551592D01*
X341612Y552578D01*
X344188Y552578D01*
X346569Y551592D01*
X348392Y549769D01*
X349378Y547388D01*
X349378Y544812D01*
X348392Y542431D01*
X346569Y540608D01*
X344188Y539622D01*
X341612Y539622D01*
G37*
%LPD*%
%LPC*%
G36*
X278112Y488822D02*
X278112Y488822D01*
X275731Y489808D01*
X273908Y491631D01*
X272922Y494012D01*
X272922Y496588D01*
X273908Y498969D01*
X275038Y500099D01*
X275090Y500169D01*
X275150Y500233D01*
X275176Y500282D01*
X275209Y500326D01*
X275240Y500408D01*
X275280Y500486D01*
X275288Y500533D01*
X275310Y500592D01*
X275322Y500739D01*
X275335Y500817D01*
X275335Y505896D01*
X275323Y505982D01*
X275320Y506070D01*
X275303Y506123D01*
X275295Y506177D01*
X275260Y506257D01*
X275233Y506340D01*
X275205Y506380D01*
X275179Y506437D01*
X275083Y506550D01*
X275038Y506614D01*
X264198Y517453D01*
X264198Y519327D01*
X264186Y519414D01*
X264183Y519501D01*
X264166Y519554D01*
X264159Y519609D01*
X264123Y519689D01*
X264096Y519772D01*
X264068Y519811D01*
X264042Y519868D01*
X263946Y519981D01*
X263901Y520045D01*
X262772Y521175D01*
X261785Y523556D01*
X261785Y526132D01*
X262772Y528513D01*
X264594Y530336D01*
X266975Y531322D01*
X269552Y531322D01*
X271933Y530336D01*
X273755Y528513D01*
X274741Y526132D01*
X274741Y523556D01*
X273755Y521175D01*
X273582Y521002D01*
X273547Y520955D01*
X273505Y520915D01*
X273462Y520842D01*
X273411Y520775D01*
X273390Y520720D01*
X273361Y520670D01*
X273340Y520588D01*
X273310Y520509D01*
X273305Y520451D01*
X273291Y520394D01*
X273293Y520310D01*
X273286Y520226D01*
X273298Y520169D01*
X273300Y520110D01*
X273326Y520030D01*
X273342Y519947D01*
X273369Y519895D01*
X273387Y519840D01*
X273427Y519783D01*
X273473Y519695D01*
X273542Y519622D01*
X273582Y519566D01*
X280786Y512362D01*
X283465Y509684D01*
X283465Y500817D01*
X283477Y500730D01*
X283480Y500643D01*
X283497Y500590D01*
X283505Y500535D01*
X283540Y500455D01*
X283567Y500372D01*
X283595Y500333D01*
X283621Y500276D01*
X283717Y500163D01*
X283762Y500099D01*
X284892Y498969D01*
X285878Y496588D01*
X285878Y494012D01*
X284892Y491631D01*
X283069Y489808D01*
X280688Y488822D01*
X278112Y488822D01*
G37*
%LPD*%
%LPC*%
G36*
X138442Y273077D02*
X138442Y273077D01*
X136118Y274040D01*
X134340Y275818D01*
X133377Y278142D01*
X133377Y280658D01*
X134340Y282982D01*
X136118Y284760D01*
X138442Y285723D01*
X140958Y285723D01*
X143282Y284760D01*
X144280Y283762D01*
X144349Y283710D01*
X144413Y283650D01*
X144463Y283624D01*
X144507Y283591D01*
X144589Y283560D01*
X144666Y283520D01*
X144714Y283512D01*
X144772Y283490D01*
X144920Y283478D01*
X144998Y283465D01*
X159802Y283465D01*
X159889Y283477D01*
X159977Y283480D01*
X160029Y283497D01*
X160084Y283505D01*
X160164Y283540D01*
X160247Y283567D01*
X160286Y283595D01*
X160343Y283621D01*
X160457Y283717D01*
X160520Y283762D01*
X161518Y284760D01*
X163842Y285723D01*
X166358Y285723D01*
X168682Y284760D01*
X170460Y282982D01*
X171423Y280658D01*
X171423Y278142D01*
X170460Y275818D01*
X168682Y274040D01*
X166358Y273077D01*
X163842Y273077D01*
X161518Y274040D01*
X160520Y275038D01*
X160451Y275090D01*
X160387Y275150D01*
X160337Y275176D01*
X160293Y275209D01*
X160211Y275240D01*
X160134Y275280D01*
X160086Y275288D01*
X160028Y275310D01*
X159880Y275322D01*
X159802Y275335D01*
X144998Y275335D01*
X144911Y275323D01*
X144823Y275320D01*
X144771Y275303D01*
X144716Y275295D01*
X144636Y275260D01*
X144553Y275233D01*
X144514Y275205D01*
X144457Y275179D01*
X144343Y275083D01*
X144280Y275038D01*
X143282Y274040D01*
X140958Y273077D01*
X138442Y273077D01*
G37*
%LPD*%
%LPC*%
G36*
X53631Y471931D02*
X53631Y471931D01*
X53631Y493955D01*
X55649Y493727D01*
X58291Y493124D01*
X60849Y492229D01*
X63291Y491053D01*
X65586Y489611D01*
X67705Y487921D01*
X69621Y486005D01*
X71311Y483886D01*
X72753Y481591D01*
X73929Y479149D01*
X74824Y476591D01*
X75427Y473949D01*
X75655Y471931D01*
X53631Y471931D01*
G37*
%LPD*%
%LPC*%
G36*
X83631Y424931D02*
X83631Y424931D01*
X83631Y446955D01*
X85649Y446727D01*
X88291Y446124D01*
X90849Y445229D01*
X93291Y444053D01*
X95586Y442611D01*
X97705Y440921D01*
X99621Y439005D01*
X101311Y436886D01*
X102753Y434591D01*
X103929Y432149D01*
X104824Y429591D01*
X105427Y426949D01*
X105655Y424931D01*
X83631Y424931D01*
G37*
%LPD*%
%LPC*%
G36*
X53631Y467869D02*
X53631Y467869D01*
X75655Y467869D01*
X75427Y465851D01*
X74824Y463209D01*
X73929Y460651D01*
X73785Y460351D01*
X73784Y460351D01*
X72753Y458209D01*
X71311Y455914D01*
X69621Y453795D01*
X67705Y451879D01*
X65586Y450189D01*
X64654Y449603D01*
X63291Y448747D01*
X60849Y447571D01*
X58291Y446676D01*
X55649Y446073D01*
X53631Y445845D01*
X53631Y467869D01*
G37*
%LPD*%
%LPC*%
G36*
X27545Y471931D02*
X27545Y471931D01*
X27773Y473949D01*
X28376Y476591D01*
X29271Y479149D01*
X29574Y479778D01*
X30063Y480793D01*
X30447Y481591D01*
X31889Y483886D01*
X33579Y486005D01*
X35495Y487921D01*
X37614Y489611D01*
X39909Y491053D01*
X42351Y492229D01*
X44909Y493124D01*
X47551Y493727D01*
X49569Y493955D01*
X49569Y471931D01*
X27545Y471931D01*
G37*
%LPD*%
%LPC*%
G36*
X57545Y424931D02*
X57545Y424931D01*
X57773Y426949D01*
X58376Y429591D01*
X59271Y432149D01*
X59718Y433076D01*
X59718Y433077D01*
X60207Y434092D01*
X60447Y434591D01*
X61889Y436886D01*
X63579Y439005D01*
X65495Y440921D01*
X67614Y442611D01*
X69545Y443824D01*
X69909Y444053D01*
X72351Y445229D01*
X74909Y446124D01*
X77551Y446727D01*
X79569Y446955D01*
X79569Y424931D01*
X57545Y424931D01*
G37*
%LPD*%
%LPC*%
G36*
X83631Y420869D02*
X83631Y420869D01*
X105655Y420869D01*
X105427Y418851D01*
X104824Y416209D01*
X103929Y413651D01*
X103928Y413649D01*
X103439Y412634D01*
X102950Y411619D01*
X102753Y411209D01*
X101311Y408914D01*
X99621Y406795D01*
X97705Y404879D01*
X95586Y403189D01*
X95129Y402902D01*
X93513Y401887D01*
X93291Y401747D01*
X90849Y400571D01*
X88291Y399676D01*
X85649Y399073D01*
X83631Y398845D01*
X83631Y420869D01*
G37*
%LPD*%
%LPC*%
G36*
X47551Y446073D02*
X47551Y446073D01*
X44909Y446676D01*
X42351Y447571D01*
X39909Y448747D01*
X37614Y450189D01*
X35495Y451879D01*
X33579Y453795D01*
X31889Y455914D01*
X30447Y458209D01*
X29271Y460651D01*
X28376Y463209D01*
X27773Y465851D01*
X27545Y467869D01*
X49569Y467869D01*
X49569Y445845D01*
X47551Y446073D01*
G37*
%LPD*%
%LPC*%
G36*
X77551Y399073D02*
X77551Y399073D01*
X74909Y399676D01*
X72351Y400571D01*
X69909Y401747D01*
X67614Y403189D01*
X65495Y404879D01*
X63579Y406795D01*
X61889Y408914D01*
X60447Y411209D01*
X59271Y413651D01*
X58376Y416209D01*
X57773Y418851D01*
X57545Y420869D01*
X79569Y420869D01*
X79569Y398845D01*
X77551Y399073D01*
G37*
%LPD*%
%LPC*%
G36*
X294131Y66801D02*
X294131Y66801D01*
X294131Y76536D01*
X294896Y76415D01*
X296683Y75834D01*
X298357Y74981D01*
X299878Y73876D01*
X301206Y72548D01*
X302311Y71027D01*
X303164Y69353D01*
X303745Y67566D01*
X303866Y66801D01*
X294131Y66801D01*
G37*
%LPD*%
%LPC*%
G36*
X51599Y469899D02*
X51599Y469899D01*
X51599Y469901D01*
X51601Y469901D01*
X51601Y469899D01*
X51599Y469899D01*
G37*
%LPD*%
%LPC*%
G36*
X81599Y422899D02*
X81599Y422899D01*
X81599Y422901D01*
X81601Y422901D01*
X81601Y422899D01*
X81599Y422899D01*
G37*
%LPD*%
D10*
X111600Y469900D03*
X51600Y469900D03*
X81600Y422900D03*
D11*
X217678Y952500D03*
D12*
X180900Y952500D03*
X144122Y952500D03*
D13*
X241300Y39370D03*
X241300Y64770D03*
X266700Y36830D03*
X266700Y62230D03*
X292100Y39370D03*
X292100Y64770D03*
D14*
X317500Y685800D03*
X241300Y685800D03*
X215900Y863600D03*
D15*
X88900Y824800D03*
X88900Y723900D03*
D16*
X127000Y571500D03*
X50800Y203200D03*
X88900Y381000D03*
X127000Y114300D03*
X342900Y368300D03*
X342900Y520700D03*
X254000Y520700D03*
X266700Y538762D03*
D17*
X259362Y546100D01*
X254000Y546100D01*
X241300Y533400D01*
X241300Y520700D01*
D16*
X241300Y520700D03*
X203200Y203200D03*
D17*
X177800Y203200D01*
X165100Y215900D01*
X164432Y215900D01*
D16*
X164432Y215900D03*
D18*
X215900Y596900D03*
X199890Y583430D03*
D17*
X213360Y596900D02*
X215900Y596900D01*
X213360Y596900D02*
X199890Y583430D01*
D16*
X135890Y199390D03*
X135890Y215900D03*
X241300Y558800D03*
X190500Y558800D03*
D17*
X241300Y558800D01*
D16*
X165100Y495300D03*
D17*
X165100Y571500D01*
X215900Y622300D01*
D16*
X215900Y622300D03*
D17*
X304800Y546100D02*
X342900Y546100D01*
D16*
X304800Y546100D03*
D18*
X342900Y546100D03*
D16*
X203200Y368300D03*
D17*
X254000Y317500D01*
X254000Y254000D01*
D16*
X254000Y254000D03*
D19*
X152400Y266700D03*
D17*
X215900Y266700D01*
X247269Y235331D02*
X256473Y235331D01*
X292100Y317500D02*
X304800Y330200D01*
D19*
X355600Y330200D03*
D17*
X247269Y235331D02*
X215900Y266700D01*
X304800Y330200D02*
X355600Y330200D01*
X292100Y317500D02*
X292100Y270959D01*
X256473Y235331D01*
D16*
X279400Y190500D03*
D17*
X203200Y190500D01*
D16*
X203200Y190500D03*
X279400Y215900D03*
X203200Y215900D03*
D17*
X279400Y215900D01*
D19*
X139700Y279400D03*
D17*
X165100Y279400D01*
D19*
X165100Y279400D03*
D20*
X266700Y139700D02*
X241300Y114300D01*
D16*
X266700Y139700D03*
X304800Y317500D03*
D20*
X317500Y304800D01*
X317500Y190500D01*
X266700Y139700D01*
X241300Y114300D02*
X241300Y64770D01*
D16*
X241300Y419100D03*
D17*
X266700Y419100D01*
X279400Y431800D01*
X279400Y469900D01*
X266700Y482600D01*
D16*
X266700Y482600D03*
D18*
X268263Y524844D03*
D17*
X268263Y519137D01*
X279400Y508000D01*
X279400Y495300D01*
D18*
X279400Y495300D03*
M02*
