G04 EAGLE Gerber RS-274X export*
G75*
%MOMM*%
%FSLAX34Y34*%
%LPD*%
%INSoldermask Top*%
%IPPOS*%
%AMOC8*
5,1,8,0,0,1.08239X$1,22.5*%
G01*
%ADD10R,1.203200X1.303200*%
%ADD11R,1.303200X1.203200*%
%ADD12R,1.603200X3.203200*%
%ADD13R,1.603200X1.803200*%
%ADD14R,1.033200X0.833200*%
%ADD15R,0.833200X1.033200*%
%ADD16C,0.505344*%
%ADD17R,1.673200X1.473200*%
%ADD18C,3.505200*%
%ADD19C,4.521200*%
%ADD20R,4.803200X1.203200*%
%ADD21R,3.603200X1.803200*%
%ADD22R,2.235200X2.235200*%
%ADD23C,2.235200*%
%ADD24C,2.082800*%
%ADD25C,3.319200*%
%ADD26C,2.159000*%
%ADD27R,1.403200X1.003200*%
%ADD28R,1.003200X1.103200*%
%ADD29R,1.727200X0.965200*%
%ADD30R,0.753200X1.403200*%
%ADD31R,1.473200X0.762000*%
%ADD32R,0.762000X1.473200*%
%ADD33R,1.422400X2.438400*%
%ADD34R,3.803200X2.403200*%
%ADD35C,0.653200*%
%ADD36R,1.534156X3.495038*%
%ADD37R,3.203200X1.203200*%
%ADD38C,1.603200*%


D10*
X330200Y351400D03*
X330200Y334400D03*
D11*
X334400Y558800D03*
X351400Y558800D03*
X156600Y596900D03*
X173600Y596900D03*
X270900Y279400D03*
X287900Y279400D03*
X364100Y304800D03*
X347100Y304800D03*
D12*
X330200Y395100D03*
X330200Y443100D03*
D13*
X356900Y584200D03*
X328900Y584200D03*
D11*
X300600Y533400D03*
X283600Y533400D03*
D14*
X254000Y547300D03*
X254000Y570300D03*
D15*
X153600Y609600D03*
X176600Y609600D03*
D16*
X288610Y602180D02*
X295590Y602180D01*
X288610Y602180D02*
X288610Y609160D01*
X295590Y609160D01*
X295590Y602180D01*
X295590Y606980D02*
X288610Y606980D01*
X288610Y584640D02*
X295590Y584640D01*
X288610Y584640D02*
X288610Y591620D01*
X295590Y591620D01*
X295590Y584640D01*
X295590Y589440D02*
X288610Y589440D01*
D17*
X279400Y308700D03*
X279400Y351700D03*
D16*
X335480Y219390D02*
X335480Y212410D01*
X335480Y219390D02*
X342460Y219390D01*
X342460Y212410D01*
X335480Y212410D01*
X335480Y217210D02*
X342460Y217210D01*
X317940Y219390D02*
X317940Y212410D01*
X317940Y219390D02*
X324920Y219390D01*
X324920Y212410D01*
X317940Y212410D01*
X317940Y217210D02*
X324920Y217210D01*
X335480Y193990D02*
X335480Y187010D01*
X335480Y193990D02*
X342460Y193990D01*
X342460Y187010D01*
X335480Y187010D01*
X335480Y191810D02*
X342460Y191810D01*
X317940Y193990D02*
X317940Y187010D01*
X317940Y193990D02*
X324920Y193990D01*
X324920Y187010D01*
X317940Y187010D01*
X317940Y191810D02*
X324920Y191810D01*
D18*
X25400Y25400D03*
X25400Y977900D03*
X355600Y25400D03*
X355600Y977900D03*
D19*
X111600Y469900D03*
X51600Y469900D03*
X81600Y422900D03*
D20*
X85800Y589700D03*
X85800Y629700D03*
D21*
X33800Y565700D03*
X33800Y653700D03*
D20*
X85800Y609700D03*
D22*
X217678Y952500D03*
D23*
X180900Y952500D03*
X144122Y952500D03*
D24*
X241300Y39370D03*
X241300Y64770D03*
X266700Y36830D03*
X266700Y62230D03*
X292100Y39370D03*
X292100Y64770D03*
D25*
X317500Y685800D03*
X241300Y685800D03*
X215900Y863600D03*
D26*
X88900Y824800D03*
X88900Y723900D03*
D27*
X292100Y473600D03*
X292100Y491600D03*
D28*
X238100Y606900D03*
X219100Y606900D03*
X228600Y585900D03*
D11*
X351400Y508000D03*
X334400Y508000D03*
X321700Y241300D03*
X338700Y241300D03*
X321700Y165100D03*
X338700Y165100D03*
X173600Y584200D03*
X156600Y584200D03*
X283600Y558800D03*
X300600Y558800D03*
X156600Y571500D03*
X173600Y571500D03*
X351400Y533400D03*
X334400Y533400D03*
X283600Y508000D03*
X300600Y508000D03*
D10*
X266700Y605400D03*
X266700Y588400D03*
X203200Y410600D03*
X203200Y427600D03*
D11*
X245500Y508000D03*
X262500Y508000D03*
D29*
X86360Y69850D03*
X142240Y69850D03*
X86360Y31750D03*
X142240Y31750D03*
D30*
X212700Y571801D03*
X203200Y571801D03*
X193700Y571801D03*
X193700Y545799D03*
X212700Y545799D03*
D31*
X147574Y231200D03*
X147574Y223200D03*
X147574Y215200D03*
X147574Y207200D03*
X147574Y199200D03*
X147574Y191200D03*
X147574Y183200D03*
X147574Y175200D03*
D32*
X162500Y160274D03*
X170500Y160274D03*
X178500Y160274D03*
X186500Y160274D03*
X194500Y160274D03*
X202500Y160274D03*
X210500Y160274D03*
X218500Y160274D03*
D31*
X233426Y175200D03*
X233426Y183200D03*
X233426Y191200D03*
X233426Y199200D03*
X233426Y207200D03*
X233426Y215200D03*
X233426Y223200D03*
X233426Y231200D03*
D32*
X218500Y246126D03*
X210500Y246126D03*
X202500Y246126D03*
X194500Y246126D03*
X186500Y246126D03*
X178500Y246126D03*
X170500Y246126D03*
X162500Y246126D03*
D33*
X230886Y388112D03*
X254000Y388112D03*
X277114Y388112D03*
D34*
X254000Y450090D03*
D35*
X83475Y215200D02*
X68925Y215200D01*
X68925Y203200D02*
X83475Y203200D01*
X83475Y191200D02*
X68925Y191200D01*
D36*
X76175Y203225D03*
D37*
X62700Y304800D03*
X62700Y279400D03*
X62700Y254000D03*
X62700Y330200D03*
X62700Y355600D03*
X62700Y381000D03*
D38*
X12700Y368300D03*
X12700Y266700D03*
M02*
