G04 EAGLE Gerber RS-274X export*
G75*
%MOMM*%
%FSLAX34Y34*%
%LPD*%
%INSilkscreen Bottom*%
%IPPOS*%
%AMOC8*
5,1,8,0,0,1.08239X$1,22.5*%
G01*
%ADD10C,0.152400*%
%ADD11C,0.203200*%


D10*
X227838Y394462D02*
X227838Y410718D01*
X223322Y410718D01*
X223189Y410716D01*
X223057Y410710D01*
X222925Y410700D01*
X222793Y410687D01*
X222661Y410669D01*
X222531Y410648D01*
X222400Y410623D01*
X222271Y410594D01*
X222143Y410561D01*
X222015Y410525D01*
X221889Y410485D01*
X221764Y410441D01*
X221640Y410393D01*
X221518Y410342D01*
X221397Y410287D01*
X221278Y410229D01*
X221160Y410167D01*
X221045Y410102D01*
X220931Y410033D01*
X220820Y409962D01*
X220711Y409886D01*
X220604Y409808D01*
X220499Y409727D01*
X220397Y409642D01*
X220297Y409555D01*
X220200Y409465D01*
X220105Y409372D01*
X220014Y409276D01*
X219925Y409178D01*
X219839Y409077D01*
X219756Y408973D01*
X219676Y408867D01*
X219600Y408759D01*
X219526Y408649D01*
X219456Y408536D01*
X219389Y408422D01*
X219326Y408305D01*
X219266Y408187D01*
X219209Y408067D01*
X219156Y407945D01*
X219107Y407822D01*
X219061Y407698D01*
X219019Y407572D01*
X218981Y407445D01*
X218946Y407317D01*
X218915Y407188D01*
X218888Y407059D01*
X218865Y406928D01*
X218845Y406797D01*
X218830Y406665D01*
X218818Y406533D01*
X218810Y406401D01*
X218806Y406268D01*
X218806Y406136D01*
X218810Y406003D01*
X218818Y405871D01*
X218830Y405739D01*
X218845Y405607D01*
X218865Y405476D01*
X218888Y405345D01*
X218915Y405216D01*
X218946Y405087D01*
X218981Y404959D01*
X219019Y404832D01*
X219061Y404706D01*
X219107Y404582D01*
X219156Y404459D01*
X219209Y404337D01*
X219266Y404217D01*
X219326Y404099D01*
X219389Y403982D01*
X219456Y403868D01*
X219526Y403755D01*
X219600Y403645D01*
X219676Y403537D01*
X219756Y403431D01*
X219839Y403327D01*
X219925Y403226D01*
X220014Y403128D01*
X220105Y403032D01*
X220200Y402939D01*
X220297Y402849D01*
X220397Y402762D01*
X220499Y402677D01*
X220604Y402596D01*
X220711Y402518D01*
X220820Y402442D01*
X220931Y402371D01*
X221045Y402302D01*
X221160Y402237D01*
X221278Y402175D01*
X221397Y402117D01*
X221518Y402062D01*
X221640Y402011D01*
X221764Y401963D01*
X221889Y401919D01*
X222015Y401879D01*
X222143Y401843D01*
X222271Y401810D01*
X222400Y401781D01*
X222531Y401756D01*
X222661Y401735D01*
X222793Y401717D01*
X222925Y401704D01*
X223057Y401694D01*
X223189Y401688D01*
X223322Y401686D01*
X223322Y401687D02*
X227838Y401687D01*
X211550Y394462D02*
X211550Y410718D01*
X213356Y394462D02*
X209743Y394462D01*
X209743Y410718D02*
X213356Y410718D01*
X202947Y410718D02*
X202947Y394462D01*
X202947Y410718D02*
X198432Y410718D01*
X198299Y410716D01*
X198167Y410710D01*
X198035Y410700D01*
X197903Y410687D01*
X197771Y410669D01*
X197641Y410648D01*
X197510Y410623D01*
X197381Y410594D01*
X197253Y410561D01*
X197125Y410525D01*
X196999Y410485D01*
X196874Y410441D01*
X196750Y410393D01*
X196628Y410342D01*
X196507Y410287D01*
X196388Y410229D01*
X196270Y410167D01*
X196155Y410102D01*
X196041Y410033D01*
X195930Y409962D01*
X195821Y409886D01*
X195714Y409808D01*
X195609Y409727D01*
X195507Y409642D01*
X195407Y409555D01*
X195310Y409465D01*
X195215Y409372D01*
X195124Y409276D01*
X195035Y409178D01*
X194949Y409077D01*
X194866Y408973D01*
X194786Y408867D01*
X194710Y408759D01*
X194636Y408649D01*
X194566Y408536D01*
X194499Y408422D01*
X194436Y408305D01*
X194376Y408187D01*
X194319Y408067D01*
X194266Y407945D01*
X194217Y407822D01*
X194171Y407698D01*
X194129Y407572D01*
X194091Y407445D01*
X194056Y407317D01*
X194025Y407188D01*
X193998Y407059D01*
X193975Y406928D01*
X193955Y406797D01*
X193940Y406665D01*
X193928Y406533D01*
X193920Y406401D01*
X193916Y406268D01*
X193916Y406136D01*
X193920Y406003D01*
X193928Y405871D01*
X193940Y405739D01*
X193955Y405607D01*
X193975Y405476D01*
X193998Y405345D01*
X194025Y405216D01*
X194056Y405087D01*
X194091Y404959D01*
X194129Y404832D01*
X194171Y404706D01*
X194217Y404582D01*
X194266Y404459D01*
X194319Y404337D01*
X194376Y404217D01*
X194436Y404099D01*
X194499Y403982D01*
X194566Y403868D01*
X194636Y403755D01*
X194710Y403645D01*
X194786Y403537D01*
X194866Y403431D01*
X194949Y403327D01*
X195035Y403226D01*
X195124Y403128D01*
X195215Y403032D01*
X195310Y402939D01*
X195407Y402849D01*
X195507Y402762D01*
X195609Y402677D01*
X195714Y402596D01*
X195821Y402518D01*
X195930Y402442D01*
X196041Y402371D01*
X196155Y402302D01*
X196270Y402237D01*
X196388Y402175D01*
X196507Y402117D01*
X196628Y402062D01*
X196750Y402011D01*
X196874Y401963D01*
X196999Y401919D01*
X197125Y401879D01*
X197253Y401843D01*
X197381Y401810D01*
X197510Y401781D01*
X197641Y401756D01*
X197771Y401735D01*
X197903Y401717D01*
X198035Y401704D01*
X198167Y401694D01*
X198299Y401688D01*
X198432Y401686D01*
X198432Y401687D02*
X202947Y401687D01*
X197529Y401687D02*
X193916Y394462D01*
X178459Y394462D02*
X178459Y410718D01*
X173943Y410718D01*
X173810Y410716D01*
X173678Y410710D01*
X173546Y410700D01*
X173414Y410687D01*
X173282Y410669D01*
X173152Y410648D01*
X173021Y410623D01*
X172892Y410594D01*
X172764Y410561D01*
X172636Y410525D01*
X172510Y410485D01*
X172385Y410441D01*
X172261Y410393D01*
X172139Y410342D01*
X172018Y410287D01*
X171899Y410229D01*
X171781Y410167D01*
X171666Y410102D01*
X171552Y410033D01*
X171441Y409962D01*
X171332Y409886D01*
X171225Y409808D01*
X171120Y409727D01*
X171018Y409642D01*
X170918Y409555D01*
X170821Y409465D01*
X170726Y409372D01*
X170635Y409276D01*
X170546Y409178D01*
X170460Y409077D01*
X170377Y408973D01*
X170297Y408867D01*
X170221Y408759D01*
X170147Y408649D01*
X170077Y408536D01*
X170010Y408422D01*
X169947Y408305D01*
X169887Y408187D01*
X169830Y408067D01*
X169777Y407945D01*
X169728Y407822D01*
X169682Y407698D01*
X169640Y407572D01*
X169602Y407445D01*
X169567Y407317D01*
X169536Y407188D01*
X169509Y407059D01*
X169486Y406928D01*
X169466Y406797D01*
X169451Y406665D01*
X169439Y406533D01*
X169431Y406401D01*
X169427Y406268D01*
X169427Y406136D01*
X169431Y406003D01*
X169439Y405871D01*
X169451Y405739D01*
X169466Y405607D01*
X169486Y405476D01*
X169509Y405345D01*
X169536Y405216D01*
X169567Y405087D01*
X169602Y404959D01*
X169640Y404832D01*
X169682Y404706D01*
X169728Y404582D01*
X169777Y404459D01*
X169830Y404337D01*
X169887Y404217D01*
X169947Y404099D01*
X170010Y403982D01*
X170077Y403868D01*
X170147Y403755D01*
X170221Y403645D01*
X170297Y403537D01*
X170377Y403431D01*
X170460Y403327D01*
X170546Y403226D01*
X170635Y403128D01*
X170726Y403032D01*
X170821Y402939D01*
X170918Y402849D01*
X171018Y402762D01*
X171120Y402677D01*
X171225Y402596D01*
X171332Y402518D01*
X171441Y402442D01*
X171552Y402371D01*
X171666Y402302D01*
X171781Y402237D01*
X171899Y402175D01*
X172018Y402117D01*
X172139Y402062D01*
X172261Y402011D01*
X172385Y401963D01*
X172510Y401919D01*
X172636Y401879D01*
X172764Y401843D01*
X172892Y401810D01*
X173021Y401781D01*
X173152Y401756D01*
X173282Y401735D01*
X173414Y401717D01*
X173546Y401704D01*
X173678Y401694D01*
X173810Y401688D01*
X173943Y401686D01*
X173943Y401687D02*
X178459Y401687D01*
X173040Y401687D02*
X169427Y394462D01*
X160349Y394462D02*
X155833Y394462D01*
X160349Y394462D02*
X160450Y394464D01*
X160551Y394470D01*
X160652Y394479D01*
X160753Y394492D01*
X160853Y394509D01*
X160952Y394530D01*
X161050Y394554D01*
X161147Y394582D01*
X161244Y394614D01*
X161339Y394649D01*
X161432Y394688D01*
X161524Y394730D01*
X161615Y394776D01*
X161704Y394825D01*
X161790Y394877D01*
X161875Y394933D01*
X161958Y394991D01*
X162038Y395053D01*
X162116Y395118D01*
X162192Y395185D01*
X162265Y395255D01*
X162335Y395328D01*
X162402Y395404D01*
X162467Y395482D01*
X162529Y395562D01*
X162587Y395645D01*
X162643Y395730D01*
X162695Y395817D01*
X162744Y395905D01*
X162790Y395996D01*
X162832Y396088D01*
X162871Y396181D01*
X162906Y396276D01*
X162938Y396373D01*
X162966Y396470D01*
X162990Y396568D01*
X163011Y396667D01*
X163028Y396767D01*
X163041Y396868D01*
X163050Y396969D01*
X163056Y397070D01*
X163058Y397171D01*
X163058Y401687D01*
X163057Y401687D02*
X163055Y401806D01*
X163049Y401926D01*
X163039Y402045D01*
X163025Y402163D01*
X163008Y402282D01*
X162986Y402399D01*
X162961Y402516D01*
X162931Y402631D01*
X162898Y402746D01*
X162861Y402860D01*
X162821Y402972D01*
X162776Y403083D01*
X162728Y403192D01*
X162677Y403300D01*
X162622Y403406D01*
X162563Y403510D01*
X162501Y403612D01*
X162436Y403712D01*
X162367Y403810D01*
X162295Y403906D01*
X162220Y403999D01*
X162143Y404089D01*
X162062Y404177D01*
X161978Y404262D01*
X161891Y404344D01*
X161802Y404424D01*
X161710Y404500D01*
X161616Y404574D01*
X161519Y404644D01*
X161421Y404711D01*
X161320Y404775D01*
X161216Y404835D01*
X161111Y404892D01*
X161004Y404945D01*
X160896Y404995D01*
X160786Y405041D01*
X160674Y405083D01*
X160561Y405122D01*
X160447Y405157D01*
X160332Y405188D01*
X160215Y405216D01*
X160098Y405239D01*
X159981Y405259D01*
X159862Y405275D01*
X159743Y405287D01*
X159624Y405295D01*
X159505Y405299D01*
X159385Y405299D01*
X159266Y405295D01*
X159147Y405287D01*
X159028Y405275D01*
X158909Y405259D01*
X158792Y405239D01*
X158675Y405216D01*
X158558Y405188D01*
X158443Y405157D01*
X158329Y405122D01*
X158216Y405083D01*
X158104Y405041D01*
X157994Y404995D01*
X157886Y404945D01*
X157779Y404892D01*
X157674Y404835D01*
X157570Y404775D01*
X157469Y404711D01*
X157371Y404644D01*
X157274Y404574D01*
X157180Y404500D01*
X157088Y404424D01*
X156999Y404344D01*
X156912Y404262D01*
X156828Y404177D01*
X156747Y404089D01*
X156670Y403999D01*
X156595Y403906D01*
X156523Y403810D01*
X156454Y403712D01*
X156389Y403612D01*
X156327Y403510D01*
X156268Y403406D01*
X156213Y403300D01*
X156162Y403192D01*
X156114Y403083D01*
X156069Y402972D01*
X156029Y402860D01*
X155992Y402746D01*
X155959Y402631D01*
X155929Y402516D01*
X155904Y402399D01*
X155882Y402282D01*
X155865Y402163D01*
X155851Y402045D01*
X155841Y401926D01*
X155835Y401806D01*
X155833Y401687D01*
X155833Y399881D01*
X163058Y399881D01*
X149274Y397171D02*
X149274Y410718D01*
X149274Y397171D02*
X149272Y397070D01*
X149266Y396969D01*
X149257Y396868D01*
X149244Y396767D01*
X149227Y396667D01*
X149206Y396568D01*
X149182Y396470D01*
X149154Y396373D01*
X149122Y396276D01*
X149087Y396181D01*
X149048Y396088D01*
X149006Y395996D01*
X148960Y395905D01*
X148911Y395817D01*
X148859Y395730D01*
X148803Y395645D01*
X148745Y395562D01*
X148683Y395482D01*
X148618Y395404D01*
X148551Y395328D01*
X148481Y395255D01*
X148408Y395185D01*
X148332Y395118D01*
X148254Y395053D01*
X148174Y394991D01*
X148091Y394933D01*
X148006Y394877D01*
X147920Y394825D01*
X147831Y394776D01*
X147740Y394730D01*
X147648Y394688D01*
X147555Y394649D01*
X147460Y394614D01*
X147363Y394582D01*
X147266Y394554D01*
X147168Y394530D01*
X147069Y394509D01*
X146969Y394492D01*
X146868Y394479D01*
X146767Y394470D01*
X146666Y394464D01*
X146565Y394462D01*
X138087Y400784D02*
X134023Y400784D01*
X138087Y400784D02*
X138199Y400782D01*
X138310Y400776D01*
X138421Y400766D01*
X138532Y400753D01*
X138642Y400735D01*
X138751Y400713D01*
X138860Y400688D01*
X138968Y400659D01*
X139074Y400626D01*
X139180Y400589D01*
X139284Y400549D01*
X139386Y400505D01*
X139487Y400457D01*
X139586Y400406D01*
X139684Y400351D01*
X139779Y400293D01*
X139872Y400232D01*
X139963Y400167D01*
X140052Y400099D01*
X140138Y400028D01*
X140221Y399955D01*
X140302Y399878D01*
X140381Y399798D01*
X140456Y399716D01*
X140528Y399631D01*
X140598Y399544D01*
X140664Y399454D01*
X140727Y399362D01*
X140787Y399267D01*
X140843Y399171D01*
X140896Y399073D01*
X140945Y398973D01*
X140991Y398871D01*
X141033Y398768D01*
X141072Y398663D01*
X141107Y398557D01*
X141138Y398450D01*
X141165Y398342D01*
X141189Y398233D01*
X141208Y398123D01*
X141224Y398013D01*
X141236Y397902D01*
X141244Y397790D01*
X141248Y397679D01*
X141248Y397567D01*
X141244Y397456D01*
X141236Y397344D01*
X141224Y397233D01*
X141208Y397123D01*
X141189Y397013D01*
X141165Y396904D01*
X141138Y396796D01*
X141107Y396689D01*
X141072Y396583D01*
X141033Y396478D01*
X140991Y396375D01*
X140945Y396273D01*
X140896Y396173D01*
X140843Y396075D01*
X140787Y395979D01*
X140727Y395884D01*
X140664Y395792D01*
X140598Y395702D01*
X140528Y395615D01*
X140456Y395530D01*
X140381Y395448D01*
X140302Y395368D01*
X140221Y395291D01*
X140138Y395218D01*
X140052Y395147D01*
X139963Y395079D01*
X139872Y395014D01*
X139779Y394953D01*
X139684Y394895D01*
X139586Y394840D01*
X139487Y394789D01*
X139386Y394741D01*
X139284Y394697D01*
X139180Y394657D01*
X139074Y394620D01*
X138968Y394587D01*
X138860Y394558D01*
X138751Y394533D01*
X138642Y394511D01*
X138532Y394493D01*
X138421Y394480D01*
X138310Y394470D01*
X138199Y394464D01*
X138087Y394462D01*
X134023Y394462D01*
X134023Y402590D01*
X134025Y402691D01*
X134031Y402792D01*
X134040Y402893D01*
X134053Y402994D01*
X134070Y403094D01*
X134091Y403193D01*
X134115Y403291D01*
X134143Y403388D01*
X134175Y403485D01*
X134210Y403580D01*
X134249Y403673D01*
X134291Y403765D01*
X134337Y403856D01*
X134386Y403945D01*
X134438Y404031D01*
X134494Y404116D01*
X134552Y404199D01*
X134614Y404279D01*
X134679Y404357D01*
X134746Y404433D01*
X134816Y404506D01*
X134889Y404576D01*
X134965Y404643D01*
X135043Y404708D01*
X135123Y404770D01*
X135206Y404828D01*
X135291Y404884D01*
X135378Y404936D01*
X135466Y404985D01*
X135557Y405031D01*
X135649Y405073D01*
X135742Y405112D01*
X135837Y405147D01*
X135934Y405179D01*
X136031Y405207D01*
X136129Y405231D01*
X136228Y405252D01*
X136328Y405269D01*
X136429Y405282D01*
X136530Y405291D01*
X136631Y405297D01*
X136732Y405299D01*
X140344Y405299D01*
X127627Y389043D02*
X125821Y389043D01*
X120402Y405299D01*
X127627Y405299D02*
X124015Y394462D01*
X351282Y828100D02*
X367538Y828100D01*
X367538Y832616D01*
X367536Y832749D01*
X367530Y832881D01*
X367520Y833013D01*
X367507Y833145D01*
X367489Y833277D01*
X367468Y833407D01*
X367443Y833538D01*
X367414Y833667D01*
X367381Y833795D01*
X367345Y833923D01*
X367305Y834049D01*
X367261Y834174D01*
X367213Y834298D01*
X367162Y834420D01*
X367107Y834541D01*
X367049Y834660D01*
X366987Y834778D01*
X366922Y834893D01*
X366853Y835007D01*
X366782Y835118D01*
X366706Y835227D01*
X366628Y835334D01*
X366547Y835439D01*
X366462Y835541D01*
X366375Y835641D01*
X366285Y835738D01*
X366192Y835833D01*
X366096Y835924D01*
X365998Y836013D01*
X365897Y836099D01*
X365793Y836182D01*
X365687Y836262D01*
X365579Y836338D01*
X365469Y836412D01*
X365356Y836482D01*
X365242Y836549D01*
X365125Y836612D01*
X365007Y836672D01*
X364887Y836729D01*
X364765Y836782D01*
X364642Y836831D01*
X364518Y836877D01*
X364392Y836919D01*
X364265Y836957D01*
X364137Y836992D01*
X364008Y837023D01*
X363879Y837050D01*
X363748Y837073D01*
X363617Y837093D01*
X363485Y837108D01*
X363353Y837120D01*
X363221Y837128D01*
X363088Y837132D01*
X362956Y837132D01*
X362823Y837128D01*
X362691Y837120D01*
X362559Y837108D01*
X362427Y837093D01*
X362296Y837073D01*
X362165Y837050D01*
X362036Y837023D01*
X361907Y836992D01*
X361779Y836957D01*
X361652Y836919D01*
X361526Y836877D01*
X361402Y836831D01*
X361279Y836782D01*
X361157Y836729D01*
X361037Y836672D01*
X360919Y836612D01*
X360802Y836549D01*
X360688Y836482D01*
X360575Y836412D01*
X360465Y836338D01*
X360357Y836262D01*
X360251Y836182D01*
X360147Y836099D01*
X360046Y836013D01*
X359948Y835924D01*
X359852Y835833D01*
X359759Y835738D01*
X359669Y835641D01*
X359582Y835541D01*
X359497Y835439D01*
X359416Y835334D01*
X359338Y835227D01*
X359262Y835118D01*
X359191Y835007D01*
X359122Y834893D01*
X359057Y834778D01*
X358995Y834660D01*
X358937Y834541D01*
X358882Y834420D01*
X358831Y834298D01*
X358783Y834174D01*
X358739Y834049D01*
X358699Y833923D01*
X358663Y833795D01*
X358630Y833667D01*
X358601Y833538D01*
X358576Y833407D01*
X358555Y833277D01*
X358537Y833145D01*
X358524Y833013D01*
X358514Y832881D01*
X358508Y832749D01*
X358506Y832616D01*
X358507Y832616D02*
X358507Y828100D01*
X358507Y833519D02*
X351282Y837131D01*
X354894Y843501D02*
X358507Y843501D01*
X358626Y843503D01*
X358746Y843509D01*
X358865Y843519D01*
X358983Y843533D01*
X359102Y843550D01*
X359219Y843572D01*
X359336Y843597D01*
X359451Y843627D01*
X359566Y843660D01*
X359680Y843697D01*
X359792Y843737D01*
X359903Y843782D01*
X360012Y843830D01*
X360120Y843881D01*
X360226Y843936D01*
X360330Y843995D01*
X360432Y844057D01*
X360532Y844122D01*
X360630Y844191D01*
X360726Y844263D01*
X360819Y844338D01*
X360909Y844415D01*
X360997Y844496D01*
X361082Y844580D01*
X361164Y844667D01*
X361244Y844756D01*
X361320Y844848D01*
X361394Y844942D01*
X361464Y845039D01*
X361531Y845137D01*
X361595Y845238D01*
X361655Y845342D01*
X361712Y845447D01*
X361765Y845554D01*
X361815Y845662D01*
X361861Y845772D01*
X361903Y845884D01*
X361942Y845997D01*
X361977Y846111D01*
X362008Y846226D01*
X362036Y846343D01*
X362059Y846460D01*
X362079Y846577D01*
X362095Y846696D01*
X362107Y846815D01*
X362115Y846934D01*
X362119Y847053D01*
X362119Y847173D01*
X362115Y847292D01*
X362107Y847411D01*
X362095Y847530D01*
X362079Y847649D01*
X362059Y847766D01*
X362036Y847883D01*
X362008Y848000D01*
X361977Y848115D01*
X361942Y848229D01*
X361903Y848342D01*
X361861Y848454D01*
X361815Y848564D01*
X361765Y848672D01*
X361712Y848779D01*
X361655Y848884D01*
X361595Y848988D01*
X361531Y849089D01*
X361464Y849187D01*
X361394Y849284D01*
X361320Y849378D01*
X361244Y849470D01*
X361164Y849559D01*
X361082Y849646D01*
X360997Y849730D01*
X360909Y849811D01*
X360819Y849888D01*
X360726Y849963D01*
X360630Y850035D01*
X360532Y850104D01*
X360432Y850169D01*
X360330Y850231D01*
X360226Y850290D01*
X360120Y850345D01*
X360012Y850396D01*
X359903Y850444D01*
X359792Y850489D01*
X359680Y850529D01*
X359566Y850566D01*
X359451Y850599D01*
X359336Y850629D01*
X359219Y850654D01*
X359102Y850676D01*
X358983Y850693D01*
X358865Y850707D01*
X358746Y850717D01*
X358626Y850723D01*
X358507Y850725D01*
X358507Y850726D02*
X354894Y850726D01*
X354894Y850725D02*
X354775Y850723D01*
X354655Y850717D01*
X354536Y850707D01*
X354418Y850693D01*
X354299Y850676D01*
X354182Y850654D01*
X354065Y850629D01*
X353950Y850599D01*
X353835Y850566D01*
X353721Y850529D01*
X353609Y850489D01*
X353498Y850444D01*
X353389Y850396D01*
X353281Y850345D01*
X353175Y850290D01*
X353071Y850231D01*
X352969Y850169D01*
X352869Y850104D01*
X352771Y850035D01*
X352675Y849963D01*
X352582Y849888D01*
X352492Y849811D01*
X352404Y849730D01*
X352319Y849646D01*
X352237Y849559D01*
X352157Y849470D01*
X352081Y849378D01*
X352007Y849284D01*
X351937Y849187D01*
X351870Y849089D01*
X351806Y848988D01*
X351746Y848884D01*
X351689Y848779D01*
X351636Y848672D01*
X351586Y848564D01*
X351540Y848454D01*
X351498Y848342D01*
X351459Y848229D01*
X351424Y848115D01*
X351393Y848000D01*
X351365Y847883D01*
X351342Y847766D01*
X351322Y847649D01*
X351306Y847530D01*
X351294Y847411D01*
X351286Y847292D01*
X351282Y847173D01*
X351282Y847053D01*
X351286Y846934D01*
X351294Y846815D01*
X351306Y846696D01*
X351322Y846577D01*
X351342Y846460D01*
X351365Y846343D01*
X351393Y846226D01*
X351424Y846111D01*
X351459Y845997D01*
X351498Y845884D01*
X351540Y845772D01*
X351586Y845662D01*
X351636Y845554D01*
X351689Y845447D01*
X351746Y845342D01*
X351806Y845238D01*
X351870Y845137D01*
X351937Y845039D01*
X352007Y844942D01*
X352081Y844848D01*
X352157Y844756D01*
X352237Y844667D01*
X352319Y844580D01*
X352404Y844496D01*
X352492Y844415D01*
X352582Y844338D01*
X352675Y844263D01*
X352771Y844191D01*
X352869Y844122D01*
X352969Y844057D01*
X353071Y843995D01*
X353175Y843936D01*
X353281Y843881D01*
X353389Y843830D01*
X353498Y843782D01*
X353609Y843737D01*
X353721Y843697D01*
X353835Y843660D01*
X353950Y843627D01*
X354065Y843597D01*
X354182Y843572D01*
X354299Y843550D01*
X354418Y843533D01*
X354536Y843519D01*
X354655Y843509D01*
X354775Y843503D01*
X354894Y843501D01*
X351282Y864199D02*
X367538Y864199D01*
X351282Y864199D02*
X351282Y859684D01*
X351284Y859583D01*
X351290Y859482D01*
X351299Y859381D01*
X351312Y859280D01*
X351329Y859180D01*
X351350Y859081D01*
X351374Y858983D01*
X351402Y858886D01*
X351434Y858789D01*
X351469Y858694D01*
X351508Y858601D01*
X351550Y858509D01*
X351596Y858418D01*
X351645Y858330D01*
X351697Y858243D01*
X351753Y858158D01*
X351811Y858075D01*
X351873Y857995D01*
X351938Y857917D01*
X352005Y857841D01*
X352075Y857768D01*
X352148Y857698D01*
X352224Y857631D01*
X352302Y857566D01*
X352382Y857504D01*
X352465Y857446D01*
X352550Y857390D01*
X352637Y857338D01*
X352725Y857289D01*
X352816Y857243D01*
X352908Y857201D01*
X353001Y857162D01*
X353096Y857127D01*
X353193Y857095D01*
X353290Y857067D01*
X353388Y857043D01*
X353487Y857022D01*
X353587Y857005D01*
X353688Y856992D01*
X353789Y856983D01*
X353890Y856977D01*
X353991Y856975D01*
X359410Y856975D01*
X359511Y856977D01*
X359612Y856983D01*
X359713Y856992D01*
X359814Y857005D01*
X359914Y857022D01*
X360013Y857043D01*
X360111Y857067D01*
X360208Y857095D01*
X360305Y857127D01*
X360400Y857162D01*
X360493Y857201D01*
X360585Y857243D01*
X360676Y857289D01*
X360765Y857338D01*
X360851Y857390D01*
X360936Y857446D01*
X361019Y857504D01*
X361099Y857566D01*
X361177Y857631D01*
X361253Y857698D01*
X361326Y857768D01*
X361396Y857841D01*
X361463Y857917D01*
X361528Y857995D01*
X361590Y858075D01*
X361648Y858158D01*
X361704Y858243D01*
X361756Y858330D01*
X361805Y858418D01*
X361851Y858509D01*
X361893Y858601D01*
X361932Y858694D01*
X361967Y858789D01*
X361999Y858886D01*
X362027Y858983D01*
X362051Y859081D01*
X362072Y859180D01*
X362089Y859280D01*
X362102Y859381D01*
X362111Y859482D01*
X362117Y859583D01*
X362119Y859684D01*
X362119Y864199D01*
X362119Y871722D02*
X351282Y871722D01*
X362119Y871722D02*
X362119Y877140D01*
X360313Y877140D01*
X362119Y882023D02*
X351282Y882023D01*
X366635Y881571D02*
X367538Y881571D01*
X367538Y882474D01*
X366635Y882474D01*
X366635Y881571D01*
X351282Y890946D02*
X351282Y895462D01*
X351282Y890946D02*
X351284Y890845D01*
X351290Y890744D01*
X351299Y890643D01*
X351312Y890542D01*
X351329Y890442D01*
X351350Y890343D01*
X351374Y890245D01*
X351402Y890148D01*
X351434Y890051D01*
X351469Y889956D01*
X351508Y889863D01*
X351550Y889771D01*
X351596Y889680D01*
X351645Y889592D01*
X351697Y889505D01*
X351753Y889420D01*
X351811Y889337D01*
X351873Y889257D01*
X351938Y889179D01*
X352005Y889103D01*
X352075Y889030D01*
X352148Y888960D01*
X352224Y888893D01*
X352302Y888828D01*
X352382Y888766D01*
X352465Y888708D01*
X352550Y888652D01*
X352637Y888600D01*
X352725Y888551D01*
X352816Y888505D01*
X352908Y888463D01*
X353001Y888424D01*
X353096Y888389D01*
X353193Y888357D01*
X353290Y888329D01*
X353388Y888305D01*
X353487Y888284D01*
X353587Y888267D01*
X353688Y888254D01*
X353789Y888245D01*
X353890Y888239D01*
X353991Y888237D01*
X359410Y888237D01*
X359511Y888239D01*
X359612Y888245D01*
X359713Y888254D01*
X359814Y888267D01*
X359914Y888284D01*
X360013Y888305D01*
X360111Y888329D01*
X360208Y888357D01*
X360305Y888389D01*
X360400Y888424D01*
X360493Y888463D01*
X360585Y888505D01*
X360676Y888551D01*
X360765Y888600D01*
X360851Y888652D01*
X360936Y888708D01*
X361019Y888766D01*
X361099Y888828D01*
X361177Y888893D01*
X361253Y888960D01*
X361326Y889030D01*
X361396Y889103D01*
X361463Y889179D01*
X361528Y889257D01*
X361590Y889337D01*
X361648Y889420D01*
X361704Y889505D01*
X361756Y889592D01*
X361805Y889680D01*
X361851Y889771D01*
X361893Y889863D01*
X361932Y889956D01*
X361967Y890051D01*
X361999Y890148D01*
X362027Y890245D01*
X362051Y890343D01*
X362072Y890442D01*
X362089Y890542D01*
X362102Y890643D01*
X362111Y890744D01*
X362117Y890845D01*
X362119Y890946D01*
X362119Y895462D01*
X348573Y895462D01*
X348573Y895461D02*
X348469Y895459D01*
X348366Y895453D01*
X348262Y895443D01*
X348159Y895429D01*
X348057Y895411D01*
X347956Y895390D01*
X347855Y895364D01*
X347756Y895335D01*
X347657Y895302D01*
X347560Y895265D01*
X347465Y895224D01*
X347371Y895180D01*
X347279Y895132D01*
X347189Y895081D01*
X347100Y895026D01*
X347014Y894968D01*
X346931Y894906D01*
X346849Y894842D01*
X346771Y894774D01*
X346695Y894704D01*
X346621Y894631D01*
X346551Y894554D01*
X346483Y894476D01*
X346419Y894394D01*
X346357Y894311D01*
X346299Y894225D01*
X346244Y894136D01*
X346193Y894046D01*
X346145Y893954D01*
X346101Y893860D01*
X346060Y893765D01*
X346023Y893668D01*
X345990Y893569D01*
X345961Y893470D01*
X345935Y893369D01*
X345914Y893268D01*
X345896Y893166D01*
X345882Y893063D01*
X345872Y892959D01*
X345866Y892856D01*
X345864Y892752D01*
X345863Y892752D02*
X345863Y889140D01*
X353991Y902899D02*
X362119Y902899D01*
X353991Y902900D02*
X353890Y902902D01*
X353789Y902908D01*
X353688Y902917D01*
X353587Y902930D01*
X353487Y902947D01*
X353388Y902968D01*
X353290Y902992D01*
X353193Y903020D01*
X353096Y903052D01*
X353001Y903087D01*
X352908Y903126D01*
X352816Y903168D01*
X352725Y903214D01*
X352637Y903263D01*
X352550Y903315D01*
X352465Y903371D01*
X352382Y903429D01*
X352302Y903491D01*
X352224Y903556D01*
X352148Y903623D01*
X352075Y903693D01*
X352005Y903766D01*
X351938Y903842D01*
X351873Y903920D01*
X351811Y904000D01*
X351753Y904083D01*
X351697Y904168D01*
X351645Y904255D01*
X351596Y904343D01*
X351550Y904434D01*
X351508Y904526D01*
X351469Y904619D01*
X351434Y904714D01*
X351402Y904811D01*
X351374Y904908D01*
X351350Y905006D01*
X351329Y905105D01*
X351312Y905205D01*
X351299Y905306D01*
X351290Y905407D01*
X351284Y905508D01*
X351282Y905609D01*
X351282Y910124D01*
X362119Y910124D01*
X351282Y919677D02*
X351282Y924192D01*
X351282Y919677D02*
X351284Y919576D01*
X351290Y919475D01*
X351299Y919374D01*
X351312Y919273D01*
X351329Y919173D01*
X351350Y919074D01*
X351374Y918976D01*
X351402Y918879D01*
X351434Y918782D01*
X351469Y918687D01*
X351508Y918594D01*
X351550Y918502D01*
X351596Y918411D01*
X351645Y918323D01*
X351697Y918236D01*
X351753Y918151D01*
X351811Y918068D01*
X351873Y917988D01*
X351938Y917910D01*
X352005Y917834D01*
X352075Y917761D01*
X352148Y917691D01*
X352224Y917624D01*
X352302Y917559D01*
X352382Y917497D01*
X352465Y917439D01*
X352550Y917383D01*
X352637Y917331D01*
X352725Y917282D01*
X352816Y917236D01*
X352908Y917194D01*
X353001Y917155D01*
X353096Y917120D01*
X353193Y917088D01*
X353290Y917060D01*
X353388Y917036D01*
X353487Y917015D01*
X353587Y916998D01*
X353688Y916985D01*
X353789Y916976D01*
X353890Y916970D01*
X353991Y916968D01*
X353991Y916967D02*
X358507Y916967D01*
X358507Y916968D02*
X358626Y916970D01*
X358746Y916976D01*
X358865Y916986D01*
X358983Y917000D01*
X359102Y917017D01*
X359219Y917039D01*
X359336Y917064D01*
X359451Y917094D01*
X359566Y917127D01*
X359680Y917164D01*
X359792Y917204D01*
X359903Y917249D01*
X360012Y917297D01*
X360120Y917348D01*
X360226Y917403D01*
X360330Y917462D01*
X360432Y917524D01*
X360532Y917589D01*
X360630Y917658D01*
X360726Y917730D01*
X360819Y917805D01*
X360909Y917882D01*
X360997Y917963D01*
X361082Y918047D01*
X361164Y918134D01*
X361244Y918223D01*
X361320Y918315D01*
X361394Y918409D01*
X361464Y918506D01*
X361531Y918604D01*
X361595Y918705D01*
X361655Y918809D01*
X361712Y918914D01*
X361765Y919021D01*
X361815Y919129D01*
X361861Y919239D01*
X361903Y919351D01*
X361942Y919464D01*
X361977Y919578D01*
X362008Y919693D01*
X362036Y919810D01*
X362059Y919927D01*
X362079Y920044D01*
X362095Y920163D01*
X362107Y920282D01*
X362115Y920401D01*
X362119Y920520D01*
X362119Y920640D01*
X362115Y920759D01*
X362107Y920878D01*
X362095Y920997D01*
X362079Y921116D01*
X362059Y921233D01*
X362036Y921350D01*
X362008Y921467D01*
X361977Y921582D01*
X361942Y921696D01*
X361903Y921809D01*
X361861Y921921D01*
X361815Y922031D01*
X361765Y922139D01*
X361712Y922246D01*
X361655Y922351D01*
X361595Y922455D01*
X361531Y922556D01*
X361464Y922654D01*
X361394Y922751D01*
X361320Y922845D01*
X361244Y922937D01*
X361164Y923026D01*
X361082Y923113D01*
X360997Y923197D01*
X360909Y923278D01*
X360819Y923355D01*
X360726Y923430D01*
X360630Y923502D01*
X360532Y923571D01*
X360432Y923636D01*
X360330Y923698D01*
X360226Y923757D01*
X360120Y923812D01*
X360012Y923863D01*
X359903Y923911D01*
X359792Y923956D01*
X359680Y923996D01*
X359566Y924033D01*
X359451Y924066D01*
X359336Y924096D01*
X359219Y924121D01*
X359102Y924143D01*
X358983Y924160D01*
X358865Y924174D01*
X358746Y924184D01*
X358626Y924190D01*
X358507Y924192D01*
X356701Y924192D01*
X356701Y916967D01*
X357604Y931869D02*
X355798Y936385D01*
X357604Y931869D02*
X357641Y931781D01*
X357682Y931695D01*
X357726Y931610D01*
X357774Y931527D01*
X357825Y931447D01*
X357879Y931368D01*
X357937Y931292D01*
X357997Y931218D01*
X358061Y931146D01*
X358127Y931078D01*
X358197Y931012D01*
X358268Y930949D01*
X358343Y930888D01*
X358419Y930831D01*
X358498Y930778D01*
X358579Y930727D01*
X358662Y930680D01*
X358747Y930636D01*
X358834Y930596D01*
X358922Y930559D01*
X359012Y930526D01*
X359103Y930496D01*
X359195Y930471D01*
X359288Y930449D01*
X359382Y930431D01*
X359476Y930416D01*
X359571Y930406D01*
X359667Y930400D01*
X359762Y930397D01*
X359858Y930398D01*
X359953Y930404D01*
X360049Y930413D01*
X360143Y930426D01*
X360237Y930442D01*
X360331Y930463D01*
X360423Y930488D01*
X360514Y930516D01*
X360604Y930548D01*
X360693Y930583D01*
X360780Y930622D01*
X360866Y930665D01*
X360950Y930711D01*
X361031Y930761D01*
X361111Y930813D01*
X361189Y930869D01*
X361264Y930929D01*
X361336Y930991D01*
X361406Y931056D01*
X361474Y931124D01*
X361538Y931194D01*
X361600Y931267D01*
X361658Y931343D01*
X361714Y931421D01*
X361766Y931501D01*
X361815Y931583D01*
X361860Y931667D01*
X361902Y931753D01*
X361941Y931840D01*
X361976Y931929D01*
X362007Y932020D01*
X362034Y932111D01*
X362058Y932204D01*
X362078Y932297D01*
X362094Y932391D01*
X362106Y932486D01*
X362115Y932581D01*
X362119Y932677D01*
X362120Y932772D01*
X362113Y933019D01*
X362101Y933265D01*
X362083Y933511D01*
X362058Y933757D01*
X362028Y934001D01*
X361992Y934245D01*
X361951Y934488D01*
X361903Y934730D01*
X361849Y934971D01*
X361790Y935210D01*
X361725Y935448D01*
X361654Y935684D01*
X361578Y935919D01*
X361496Y936152D01*
X361408Y936382D01*
X361315Y936610D01*
X361217Y936837D01*
X355797Y936385D02*
X355760Y936473D01*
X355719Y936559D01*
X355675Y936644D01*
X355627Y936727D01*
X355576Y936807D01*
X355522Y936886D01*
X355464Y936962D01*
X355404Y937036D01*
X355340Y937108D01*
X355274Y937176D01*
X355204Y937242D01*
X355133Y937305D01*
X355058Y937366D01*
X354982Y937423D01*
X354903Y937476D01*
X354822Y937527D01*
X354739Y937574D01*
X354654Y937618D01*
X354567Y937658D01*
X354479Y937695D01*
X354389Y937728D01*
X354298Y937758D01*
X354206Y937783D01*
X354113Y937805D01*
X354019Y937823D01*
X353925Y937838D01*
X353830Y937848D01*
X353734Y937854D01*
X353639Y937857D01*
X353543Y937856D01*
X353448Y937850D01*
X353352Y937841D01*
X353258Y937828D01*
X353164Y937812D01*
X353070Y937791D01*
X352978Y937766D01*
X352887Y937738D01*
X352797Y937706D01*
X352708Y937671D01*
X352621Y937632D01*
X352535Y937589D01*
X352451Y937543D01*
X352370Y937493D01*
X352290Y937441D01*
X352212Y937385D01*
X352137Y937325D01*
X352065Y937263D01*
X351995Y937198D01*
X351927Y937130D01*
X351863Y937060D01*
X351801Y936987D01*
X351743Y936911D01*
X351687Y936833D01*
X351635Y936753D01*
X351586Y936671D01*
X351541Y936587D01*
X351499Y936501D01*
X351460Y936414D01*
X351425Y936325D01*
X351394Y936234D01*
X351367Y936143D01*
X351343Y936050D01*
X351323Y935957D01*
X351307Y935863D01*
X351295Y935768D01*
X351286Y935673D01*
X351282Y935577D01*
X351281Y935482D01*
X351282Y935481D02*
X351291Y935119D01*
X351309Y934757D01*
X351336Y934396D01*
X351371Y934036D01*
X351414Y933676D01*
X351466Y933317D01*
X351527Y932960D01*
X351596Y932605D01*
X351673Y932251D01*
X351759Y931899D01*
X351853Y931549D01*
X351956Y931201D01*
X352066Y930856D01*
X352185Y930514D01*
X357604Y945416D02*
X355798Y949932D01*
X357604Y945416D02*
X357641Y945328D01*
X357682Y945242D01*
X357726Y945157D01*
X357774Y945074D01*
X357825Y944994D01*
X357879Y944915D01*
X357937Y944839D01*
X357997Y944765D01*
X358061Y944693D01*
X358127Y944625D01*
X358197Y944559D01*
X358268Y944496D01*
X358343Y944435D01*
X358419Y944378D01*
X358498Y944325D01*
X358579Y944274D01*
X358662Y944227D01*
X358747Y944183D01*
X358834Y944143D01*
X358922Y944106D01*
X359012Y944073D01*
X359103Y944043D01*
X359195Y944018D01*
X359288Y943996D01*
X359382Y943978D01*
X359476Y943963D01*
X359571Y943953D01*
X359667Y943947D01*
X359762Y943944D01*
X359858Y943945D01*
X359953Y943951D01*
X360049Y943960D01*
X360143Y943973D01*
X360237Y943989D01*
X360331Y944010D01*
X360423Y944035D01*
X360514Y944063D01*
X360604Y944095D01*
X360693Y944130D01*
X360780Y944169D01*
X360866Y944212D01*
X360950Y944258D01*
X361031Y944308D01*
X361111Y944360D01*
X361189Y944416D01*
X361264Y944476D01*
X361336Y944538D01*
X361406Y944603D01*
X361474Y944671D01*
X361538Y944741D01*
X361600Y944814D01*
X361658Y944890D01*
X361714Y944968D01*
X361766Y945048D01*
X361815Y945130D01*
X361860Y945214D01*
X361902Y945300D01*
X361941Y945387D01*
X361976Y945476D01*
X362007Y945567D01*
X362034Y945658D01*
X362058Y945751D01*
X362078Y945844D01*
X362094Y945938D01*
X362106Y946033D01*
X362115Y946128D01*
X362119Y946224D01*
X362120Y946319D01*
X362113Y946566D01*
X362101Y946812D01*
X362083Y947058D01*
X362058Y947304D01*
X362028Y947548D01*
X361992Y947792D01*
X361951Y948035D01*
X361903Y948277D01*
X361849Y948518D01*
X361790Y948757D01*
X361725Y948995D01*
X361654Y949231D01*
X361578Y949466D01*
X361496Y949699D01*
X361408Y949929D01*
X361315Y950157D01*
X361217Y950384D01*
X355797Y949932D02*
X355760Y950020D01*
X355719Y950106D01*
X355675Y950191D01*
X355627Y950274D01*
X355576Y950354D01*
X355522Y950433D01*
X355464Y950509D01*
X355404Y950583D01*
X355340Y950655D01*
X355274Y950723D01*
X355204Y950789D01*
X355133Y950852D01*
X355058Y950913D01*
X354982Y950970D01*
X354903Y951023D01*
X354822Y951074D01*
X354739Y951121D01*
X354654Y951165D01*
X354567Y951205D01*
X354479Y951242D01*
X354389Y951275D01*
X354298Y951305D01*
X354206Y951330D01*
X354113Y951352D01*
X354019Y951370D01*
X353925Y951385D01*
X353830Y951395D01*
X353734Y951401D01*
X353639Y951404D01*
X353543Y951403D01*
X353448Y951397D01*
X353352Y951388D01*
X353258Y951375D01*
X353164Y951359D01*
X353070Y951338D01*
X352978Y951313D01*
X352887Y951285D01*
X352797Y951253D01*
X352708Y951218D01*
X352621Y951179D01*
X352535Y951136D01*
X352451Y951090D01*
X352370Y951040D01*
X352290Y950988D01*
X352212Y950932D01*
X352137Y950872D01*
X352065Y950810D01*
X351995Y950745D01*
X351927Y950677D01*
X351863Y950607D01*
X351801Y950534D01*
X351743Y950458D01*
X351687Y950380D01*
X351635Y950300D01*
X351586Y950218D01*
X351541Y950134D01*
X351499Y950048D01*
X351460Y949961D01*
X351425Y949872D01*
X351394Y949781D01*
X351367Y949690D01*
X351343Y949597D01*
X351323Y949504D01*
X351307Y949410D01*
X351295Y949315D01*
X351286Y949220D01*
X351282Y949124D01*
X351281Y949029D01*
X351282Y949028D02*
X351291Y948666D01*
X351309Y948304D01*
X351336Y947943D01*
X351371Y947583D01*
X351414Y947223D01*
X351466Y946864D01*
X351527Y946507D01*
X351596Y946152D01*
X351673Y945798D01*
X351759Y945446D01*
X351853Y945096D01*
X351956Y944748D01*
X352066Y944403D01*
X352185Y944061D01*
X223322Y372618D02*
X227838Y369006D01*
X223322Y372618D02*
X223322Y356362D01*
X218807Y356362D02*
X227838Y356362D01*
X207240Y372618D02*
X207115Y372616D01*
X206990Y372610D01*
X206865Y372601D01*
X206741Y372587D01*
X206617Y372570D01*
X206493Y372549D01*
X206371Y372524D01*
X206249Y372495D01*
X206128Y372463D01*
X206008Y372427D01*
X205889Y372387D01*
X205772Y372344D01*
X205656Y372297D01*
X205541Y372246D01*
X205429Y372192D01*
X205317Y372134D01*
X205208Y372074D01*
X205101Y372009D01*
X204995Y371942D01*
X204892Y371871D01*
X204791Y371797D01*
X204692Y371720D01*
X204596Y371640D01*
X204502Y371557D01*
X204411Y371472D01*
X204322Y371383D01*
X204237Y371292D01*
X204154Y371198D01*
X204074Y371102D01*
X203997Y371003D01*
X203923Y370902D01*
X203852Y370799D01*
X203785Y370693D01*
X203720Y370586D01*
X203660Y370477D01*
X203602Y370365D01*
X203548Y370253D01*
X203497Y370138D01*
X203450Y370022D01*
X203407Y369905D01*
X203367Y369786D01*
X203331Y369666D01*
X203299Y369545D01*
X203270Y369423D01*
X203245Y369301D01*
X203224Y369177D01*
X203207Y369053D01*
X203193Y368929D01*
X203184Y368804D01*
X203178Y368679D01*
X203176Y368554D01*
X207240Y372618D02*
X207383Y372616D01*
X207525Y372610D01*
X207668Y372600D01*
X207810Y372587D01*
X207951Y372569D01*
X208093Y372548D01*
X208233Y372523D01*
X208373Y372494D01*
X208512Y372461D01*
X208650Y372424D01*
X208787Y372384D01*
X208922Y372340D01*
X209057Y372292D01*
X209190Y372240D01*
X209322Y372185D01*
X209452Y372126D01*
X209580Y372064D01*
X209707Y371998D01*
X209832Y371929D01*
X209955Y371857D01*
X210076Y371781D01*
X210194Y371702D01*
X210311Y371619D01*
X210425Y371534D01*
X210537Y371445D01*
X210646Y371354D01*
X210753Y371259D01*
X210858Y371162D01*
X210959Y371061D01*
X211058Y370958D01*
X211154Y370853D01*
X211247Y370744D01*
X211337Y370633D01*
X211424Y370520D01*
X211508Y370405D01*
X211588Y370287D01*
X211666Y370167D01*
X211740Y370045D01*
X211810Y369921D01*
X211878Y369795D01*
X211941Y369667D01*
X212002Y369538D01*
X212059Y369407D01*
X212112Y369275D01*
X212161Y369141D01*
X212207Y369006D01*
X204531Y365393D02*
X204437Y365485D01*
X204347Y365579D01*
X204259Y365676D01*
X204174Y365776D01*
X204092Y365878D01*
X204013Y365983D01*
X203938Y366090D01*
X203866Y366199D01*
X203797Y366310D01*
X203731Y366424D01*
X203669Y366539D01*
X203610Y366656D01*
X203555Y366775D01*
X203504Y366895D01*
X203456Y367017D01*
X203411Y367140D01*
X203371Y367264D01*
X203334Y367390D01*
X203301Y367517D01*
X203272Y367644D01*
X203246Y367773D01*
X203225Y367902D01*
X203207Y368032D01*
X203194Y368162D01*
X203184Y368292D01*
X203178Y368423D01*
X203176Y368554D01*
X204530Y365393D02*
X212207Y356362D01*
X203176Y356362D01*
X197236Y354556D02*
X190011Y374424D01*
X184071Y356362D02*
X179555Y356362D01*
X179422Y356364D01*
X179290Y356370D01*
X179158Y356380D01*
X179026Y356393D01*
X178894Y356411D01*
X178764Y356432D01*
X178633Y356457D01*
X178504Y356486D01*
X178376Y356519D01*
X178248Y356555D01*
X178122Y356595D01*
X177997Y356639D01*
X177873Y356687D01*
X177751Y356738D01*
X177630Y356793D01*
X177511Y356851D01*
X177393Y356913D01*
X177278Y356978D01*
X177164Y357047D01*
X177053Y357118D01*
X176944Y357194D01*
X176837Y357272D01*
X176732Y357353D01*
X176630Y357438D01*
X176530Y357525D01*
X176433Y357615D01*
X176338Y357708D01*
X176247Y357804D01*
X176158Y357902D01*
X176072Y358003D01*
X175989Y358107D01*
X175909Y358213D01*
X175833Y358321D01*
X175759Y358431D01*
X175689Y358544D01*
X175622Y358658D01*
X175559Y358775D01*
X175499Y358893D01*
X175442Y359013D01*
X175389Y359135D01*
X175340Y359258D01*
X175294Y359382D01*
X175252Y359508D01*
X175214Y359635D01*
X175179Y359763D01*
X175148Y359892D01*
X175121Y360021D01*
X175098Y360152D01*
X175078Y360283D01*
X175063Y360415D01*
X175051Y360547D01*
X175043Y360679D01*
X175039Y360812D01*
X175039Y360944D01*
X175043Y361077D01*
X175051Y361209D01*
X175063Y361341D01*
X175078Y361473D01*
X175098Y361604D01*
X175121Y361735D01*
X175148Y361864D01*
X175179Y361993D01*
X175214Y362121D01*
X175252Y362248D01*
X175294Y362374D01*
X175340Y362498D01*
X175389Y362621D01*
X175442Y362743D01*
X175499Y362863D01*
X175559Y362981D01*
X175622Y363098D01*
X175689Y363212D01*
X175759Y363325D01*
X175833Y363435D01*
X175909Y363543D01*
X175989Y363649D01*
X176072Y363753D01*
X176158Y363854D01*
X176247Y363952D01*
X176338Y364048D01*
X176433Y364141D01*
X176530Y364231D01*
X176630Y364318D01*
X176732Y364403D01*
X176837Y364484D01*
X176944Y364562D01*
X177053Y364638D01*
X177164Y364709D01*
X177278Y364778D01*
X177393Y364843D01*
X177511Y364905D01*
X177630Y364963D01*
X177751Y365018D01*
X177873Y365069D01*
X177997Y365117D01*
X178122Y365161D01*
X178248Y365201D01*
X178376Y365237D01*
X178504Y365270D01*
X178633Y365299D01*
X178764Y365324D01*
X178894Y365345D01*
X179026Y365363D01*
X179158Y365376D01*
X179290Y365386D01*
X179422Y365392D01*
X179555Y365394D01*
X178652Y372618D02*
X184071Y372618D01*
X178652Y372618D02*
X178533Y372616D01*
X178413Y372610D01*
X178294Y372600D01*
X178176Y372586D01*
X178057Y372569D01*
X177940Y372547D01*
X177823Y372522D01*
X177708Y372492D01*
X177593Y372459D01*
X177479Y372422D01*
X177367Y372382D01*
X177256Y372337D01*
X177147Y372289D01*
X177039Y372238D01*
X176933Y372183D01*
X176829Y372124D01*
X176727Y372062D01*
X176627Y371997D01*
X176529Y371928D01*
X176433Y371856D01*
X176340Y371781D01*
X176250Y371704D01*
X176162Y371623D01*
X176077Y371539D01*
X175995Y371452D01*
X175915Y371363D01*
X175839Y371271D01*
X175765Y371177D01*
X175695Y371080D01*
X175628Y370982D01*
X175564Y370881D01*
X175504Y370777D01*
X175447Y370672D01*
X175394Y370565D01*
X175344Y370457D01*
X175298Y370347D01*
X175256Y370235D01*
X175217Y370122D01*
X175182Y370008D01*
X175151Y369893D01*
X175123Y369776D01*
X175100Y369659D01*
X175080Y369542D01*
X175064Y369423D01*
X175052Y369304D01*
X175044Y369185D01*
X175040Y369066D01*
X175040Y368946D01*
X175044Y368827D01*
X175052Y368708D01*
X175064Y368589D01*
X175080Y368470D01*
X175100Y368353D01*
X175123Y368236D01*
X175151Y368119D01*
X175182Y368004D01*
X175217Y367890D01*
X175256Y367777D01*
X175298Y367665D01*
X175344Y367555D01*
X175394Y367447D01*
X175447Y367340D01*
X175504Y367235D01*
X175564Y367131D01*
X175628Y367030D01*
X175695Y366932D01*
X175765Y366835D01*
X175839Y366741D01*
X175915Y366649D01*
X175995Y366560D01*
X176077Y366473D01*
X176162Y366389D01*
X176250Y366308D01*
X176340Y366231D01*
X176433Y366156D01*
X176529Y366084D01*
X176627Y366015D01*
X176727Y365950D01*
X176829Y365888D01*
X176933Y365829D01*
X177039Y365774D01*
X177147Y365723D01*
X177256Y365675D01*
X177367Y365630D01*
X177479Y365590D01*
X177593Y365553D01*
X177708Y365520D01*
X177823Y365490D01*
X177940Y365465D01*
X178057Y365443D01*
X178176Y365426D01*
X178294Y365412D01*
X178413Y365402D01*
X178533Y365396D01*
X178652Y365394D01*
X178652Y365393D02*
X182264Y365393D01*
X169099Y354556D02*
X161875Y374424D01*
X150967Y372618D02*
X150842Y372616D01*
X150717Y372610D01*
X150592Y372601D01*
X150468Y372587D01*
X150344Y372570D01*
X150220Y372549D01*
X150098Y372524D01*
X149976Y372495D01*
X149855Y372463D01*
X149735Y372427D01*
X149616Y372387D01*
X149499Y372344D01*
X149383Y372297D01*
X149268Y372246D01*
X149156Y372192D01*
X149044Y372134D01*
X148935Y372074D01*
X148828Y372009D01*
X148722Y371942D01*
X148619Y371871D01*
X148518Y371797D01*
X148419Y371720D01*
X148323Y371640D01*
X148229Y371557D01*
X148138Y371472D01*
X148049Y371383D01*
X147964Y371292D01*
X147881Y371198D01*
X147801Y371102D01*
X147724Y371003D01*
X147650Y370902D01*
X147579Y370799D01*
X147512Y370693D01*
X147447Y370586D01*
X147387Y370477D01*
X147329Y370365D01*
X147275Y370253D01*
X147224Y370138D01*
X147177Y370022D01*
X147134Y369905D01*
X147094Y369786D01*
X147058Y369666D01*
X147026Y369545D01*
X146997Y369423D01*
X146972Y369301D01*
X146951Y369177D01*
X146934Y369053D01*
X146920Y368929D01*
X146911Y368804D01*
X146905Y368679D01*
X146903Y368554D01*
X150967Y372618D02*
X151110Y372616D01*
X151252Y372610D01*
X151395Y372600D01*
X151537Y372587D01*
X151678Y372569D01*
X151820Y372548D01*
X151960Y372523D01*
X152100Y372494D01*
X152239Y372461D01*
X152377Y372424D01*
X152514Y372384D01*
X152649Y372340D01*
X152784Y372292D01*
X152917Y372240D01*
X153049Y372185D01*
X153179Y372126D01*
X153307Y372064D01*
X153434Y371998D01*
X153559Y371929D01*
X153682Y371857D01*
X153803Y371781D01*
X153921Y371702D01*
X154038Y371619D01*
X154152Y371534D01*
X154264Y371445D01*
X154373Y371354D01*
X154480Y371259D01*
X154585Y371162D01*
X154686Y371061D01*
X154785Y370958D01*
X154881Y370853D01*
X154974Y370744D01*
X155064Y370633D01*
X155151Y370520D01*
X155235Y370405D01*
X155315Y370287D01*
X155393Y370167D01*
X155467Y370045D01*
X155537Y369921D01*
X155605Y369795D01*
X155668Y369667D01*
X155729Y369538D01*
X155786Y369407D01*
X155839Y369275D01*
X155888Y369141D01*
X155934Y369006D01*
X148259Y365393D02*
X148165Y365485D01*
X148075Y365579D01*
X147987Y365676D01*
X147902Y365776D01*
X147820Y365878D01*
X147741Y365983D01*
X147666Y366090D01*
X147594Y366199D01*
X147525Y366310D01*
X147459Y366424D01*
X147397Y366539D01*
X147338Y366656D01*
X147283Y366775D01*
X147232Y366895D01*
X147184Y367017D01*
X147139Y367140D01*
X147099Y367264D01*
X147062Y367390D01*
X147029Y367517D01*
X147000Y367644D01*
X146974Y367773D01*
X146953Y367902D01*
X146935Y368032D01*
X146922Y368162D01*
X146912Y368292D01*
X146906Y368423D01*
X146904Y368554D01*
X148258Y365393D02*
X155934Y356362D01*
X146903Y356362D01*
X140303Y364490D02*
X140299Y364810D01*
X140288Y365129D01*
X140269Y365449D01*
X140242Y365767D01*
X140208Y366085D01*
X140166Y366402D01*
X140116Y366718D01*
X140059Y367033D01*
X139995Y367346D01*
X139923Y367658D01*
X139844Y367968D01*
X139757Y368275D01*
X139663Y368581D01*
X139562Y368884D01*
X139453Y369185D01*
X139338Y369483D01*
X139215Y369779D01*
X139085Y370071D01*
X138948Y370360D01*
X138949Y370361D02*
X138910Y370469D01*
X138867Y370576D01*
X138821Y370681D01*
X138770Y370785D01*
X138717Y370887D01*
X138660Y370987D01*
X138599Y371085D01*
X138535Y371180D01*
X138468Y371274D01*
X138397Y371365D01*
X138324Y371454D01*
X138247Y371540D01*
X138168Y371623D01*
X138086Y371704D01*
X138001Y371782D01*
X137913Y371856D01*
X137823Y371928D01*
X137731Y371996D01*
X137636Y372062D01*
X137539Y372124D01*
X137440Y372182D01*
X137338Y372238D01*
X137236Y372289D01*
X137131Y372337D01*
X137025Y372382D01*
X136917Y372423D01*
X136808Y372460D01*
X136698Y372493D01*
X136586Y372522D01*
X136474Y372548D01*
X136361Y372570D01*
X136247Y372587D01*
X136133Y372601D01*
X136018Y372611D01*
X135903Y372617D01*
X135788Y372619D01*
X135788Y372618D02*
X135673Y372616D01*
X135558Y372610D01*
X135443Y372600D01*
X135329Y372586D01*
X135215Y372569D01*
X135102Y372547D01*
X134990Y372521D01*
X134878Y372492D01*
X134768Y372459D01*
X134659Y372422D01*
X134551Y372381D01*
X134445Y372336D01*
X134341Y372288D01*
X134238Y372237D01*
X134137Y372181D01*
X134037Y372123D01*
X133940Y372061D01*
X133846Y371996D01*
X133753Y371927D01*
X133663Y371855D01*
X133575Y371781D01*
X133490Y371703D01*
X133408Y371622D01*
X133329Y371539D01*
X133252Y371453D01*
X133179Y371364D01*
X133108Y371273D01*
X133041Y371179D01*
X132977Y371084D01*
X132916Y370986D01*
X132859Y370886D01*
X132806Y370784D01*
X132755Y370680D01*
X132709Y370575D01*
X132666Y370468D01*
X132627Y370360D01*
X132490Y370071D01*
X132360Y369779D01*
X132237Y369483D01*
X132122Y369185D01*
X132013Y368884D01*
X131912Y368581D01*
X131818Y368275D01*
X131731Y367968D01*
X131652Y367658D01*
X131580Y367346D01*
X131516Y367033D01*
X131459Y366718D01*
X131409Y366402D01*
X131367Y366085D01*
X131333Y365767D01*
X131306Y365449D01*
X131287Y365129D01*
X131276Y364810D01*
X131272Y364490D01*
X140303Y364490D02*
X140299Y364170D01*
X140288Y363851D01*
X140269Y363531D01*
X140242Y363213D01*
X140208Y362895D01*
X140166Y362578D01*
X140116Y362262D01*
X140059Y361947D01*
X139995Y361634D01*
X139923Y361322D01*
X139844Y361012D01*
X139757Y360705D01*
X139663Y360399D01*
X139562Y360096D01*
X139453Y359795D01*
X139338Y359497D01*
X139215Y359201D01*
X139085Y358909D01*
X138948Y358620D01*
X138949Y358620D02*
X138910Y358512D01*
X138867Y358405D01*
X138821Y358300D01*
X138770Y358196D01*
X138717Y358094D01*
X138660Y357994D01*
X138599Y357896D01*
X138535Y357801D01*
X138468Y357707D01*
X138397Y357616D01*
X138324Y357527D01*
X138247Y357441D01*
X138168Y357358D01*
X138086Y357277D01*
X138001Y357199D01*
X137913Y357125D01*
X137823Y357053D01*
X137730Y356984D01*
X137636Y356919D01*
X137539Y356857D01*
X137439Y356799D01*
X137338Y356743D01*
X137236Y356692D01*
X137131Y356644D01*
X137025Y356599D01*
X136917Y356558D01*
X136808Y356521D01*
X136698Y356488D01*
X136586Y356459D01*
X136474Y356433D01*
X136361Y356411D01*
X136247Y356394D01*
X136133Y356380D01*
X136018Y356370D01*
X135903Y356364D01*
X135788Y356362D01*
X132628Y358620D02*
X132491Y358909D01*
X132361Y359201D01*
X132238Y359497D01*
X132123Y359795D01*
X132014Y360096D01*
X131913Y360399D01*
X131819Y360705D01*
X131732Y361012D01*
X131653Y361322D01*
X131581Y361634D01*
X131517Y361947D01*
X131460Y362262D01*
X131410Y362578D01*
X131368Y362895D01*
X131334Y363213D01*
X131307Y363531D01*
X131288Y363851D01*
X131277Y364170D01*
X131273Y364490D01*
X132627Y358620D02*
X132666Y358512D01*
X132709Y358405D01*
X132755Y358300D01*
X132806Y358196D01*
X132859Y358094D01*
X132917Y357994D01*
X132977Y357896D01*
X133041Y357801D01*
X133108Y357707D01*
X133179Y357616D01*
X133252Y357527D01*
X133329Y357441D01*
X133408Y357358D01*
X133490Y357277D01*
X133575Y357199D01*
X133663Y357125D01*
X133753Y357053D01*
X133846Y356984D01*
X133940Y356919D01*
X134037Y356857D01*
X134137Y356799D01*
X134238Y356743D01*
X134341Y356692D01*
X134445Y356644D01*
X134551Y356599D01*
X134659Y356558D01*
X134768Y356521D01*
X134878Y356488D01*
X134990Y356459D01*
X135102Y356433D01*
X135215Y356411D01*
X135329Y356394D01*
X135443Y356380D01*
X135558Y356370D01*
X135673Y356364D01*
X135788Y356362D01*
X139400Y359974D02*
X132175Y369006D01*
X119705Y372618D02*
X119580Y372616D01*
X119455Y372610D01*
X119330Y372601D01*
X119206Y372587D01*
X119082Y372570D01*
X118958Y372549D01*
X118836Y372524D01*
X118714Y372495D01*
X118593Y372463D01*
X118473Y372427D01*
X118354Y372387D01*
X118237Y372344D01*
X118121Y372297D01*
X118006Y372246D01*
X117894Y372192D01*
X117782Y372134D01*
X117673Y372074D01*
X117566Y372009D01*
X117460Y371942D01*
X117357Y371871D01*
X117256Y371797D01*
X117157Y371720D01*
X117061Y371640D01*
X116967Y371557D01*
X116876Y371472D01*
X116787Y371383D01*
X116702Y371292D01*
X116619Y371198D01*
X116539Y371102D01*
X116462Y371003D01*
X116388Y370902D01*
X116317Y370799D01*
X116250Y370693D01*
X116185Y370586D01*
X116125Y370477D01*
X116067Y370365D01*
X116013Y370253D01*
X115962Y370138D01*
X115915Y370022D01*
X115872Y369905D01*
X115832Y369786D01*
X115796Y369666D01*
X115764Y369545D01*
X115735Y369423D01*
X115710Y369301D01*
X115689Y369177D01*
X115672Y369053D01*
X115658Y368929D01*
X115649Y368804D01*
X115643Y368679D01*
X115641Y368554D01*
X119705Y372618D02*
X119848Y372616D01*
X119990Y372610D01*
X120133Y372600D01*
X120275Y372587D01*
X120416Y372569D01*
X120558Y372548D01*
X120698Y372523D01*
X120838Y372494D01*
X120977Y372461D01*
X121115Y372424D01*
X121252Y372384D01*
X121387Y372340D01*
X121522Y372292D01*
X121655Y372240D01*
X121787Y372185D01*
X121917Y372126D01*
X122045Y372064D01*
X122172Y371998D01*
X122297Y371929D01*
X122420Y371857D01*
X122541Y371781D01*
X122659Y371702D01*
X122776Y371619D01*
X122890Y371534D01*
X123002Y371445D01*
X123111Y371354D01*
X123218Y371259D01*
X123323Y371162D01*
X123424Y371061D01*
X123523Y370958D01*
X123619Y370853D01*
X123712Y370744D01*
X123802Y370633D01*
X123889Y370520D01*
X123973Y370405D01*
X124053Y370287D01*
X124131Y370167D01*
X124205Y370045D01*
X124275Y369921D01*
X124343Y369795D01*
X124406Y369667D01*
X124467Y369538D01*
X124524Y369407D01*
X124577Y369275D01*
X124626Y369141D01*
X124672Y369006D01*
X116996Y365393D02*
X116902Y365485D01*
X116812Y365579D01*
X116724Y365676D01*
X116639Y365776D01*
X116557Y365878D01*
X116478Y365983D01*
X116403Y366090D01*
X116331Y366199D01*
X116262Y366310D01*
X116196Y366424D01*
X116134Y366539D01*
X116075Y366656D01*
X116020Y366775D01*
X115969Y366895D01*
X115921Y367017D01*
X115876Y367140D01*
X115836Y367264D01*
X115799Y367390D01*
X115766Y367517D01*
X115737Y367644D01*
X115711Y367773D01*
X115690Y367902D01*
X115672Y368032D01*
X115659Y368162D01*
X115649Y368292D01*
X115643Y368423D01*
X115641Y368554D01*
X116996Y365393D02*
X124672Y356362D01*
X115641Y356362D01*
X109041Y364490D02*
X109037Y364810D01*
X109026Y365129D01*
X109007Y365449D01*
X108980Y365767D01*
X108946Y366085D01*
X108904Y366402D01*
X108854Y366718D01*
X108797Y367033D01*
X108733Y367346D01*
X108661Y367658D01*
X108582Y367968D01*
X108495Y368275D01*
X108401Y368581D01*
X108300Y368884D01*
X108191Y369185D01*
X108076Y369483D01*
X107953Y369779D01*
X107823Y370071D01*
X107686Y370360D01*
X107686Y370361D02*
X107647Y370469D01*
X107604Y370576D01*
X107558Y370681D01*
X107507Y370785D01*
X107454Y370887D01*
X107397Y370987D01*
X107336Y371085D01*
X107272Y371180D01*
X107205Y371274D01*
X107134Y371365D01*
X107061Y371454D01*
X106984Y371540D01*
X106905Y371623D01*
X106823Y371704D01*
X106738Y371782D01*
X106650Y371856D01*
X106560Y371928D01*
X106468Y371996D01*
X106373Y372062D01*
X106276Y372124D01*
X106177Y372182D01*
X106075Y372238D01*
X105973Y372289D01*
X105868Y372337D01*
X105762Y372382D01*
X105654Y372423D01*
X105545Y372460D01*
X105435Y372493D01*
X105323Y372522D01*
X105211Y372548D01*
X105098Y372570D01*
X104984Y372587D01*
X104870Y372601D01*
X104755Y372611D01*
X104640Y372617D01*
X104525Y372619D01*
X104525Y372618D02*
X104410Y372616D01*
X104295Y372610D01*
X104180Y372600D01*
X104066Y372586D01*
X103952Y372569D01*
X103839Y372547D01*
X103727Y372521D01*
X103615Y372492D01*
X103505Y372459D01*
X103396Y372422D01*
X103288Y372381D01*
X103182Y372336D01*
X103078Y372288D01*
X102975Y372237D01*
X102874Y372181D01*
X102774Y372123D01*
X102677Y372061D01*
X102583Y371996D01*
X102490Y371927D01*
X102400Y371855D01*
X102312Y371781D01*
X102227Y371703D01*
X102145Y371622D01*
X102066Y371539D01*
X101989Y371453D01*
X101916Y371364D01*
X101845Y371273D01*
X101778Y371179D01*
X101714Y371084D01*
X101653Y370986D01*
X101596Y370886D01*
X101543Y370784D01*
X101492Y370680D01*
X101446Y370575D01*
X101403Y370468D01*
X101364Y370360D01*
X101365Y370360D02*
X101228Y370071D01*
X101098Y369779D01*
X100975Y369483D01*
X100860Y369185D01*
X100751Y368884D01*
X100650Y368581D01*
X100556Y368275D01*
X100469Y367968D01*
X100390Y367658D01*
X100318Y367346D01*
X100254Y367033D01*
X100197Y366718D01*
X100147Y366402D01*
X100105Y366085D01*
X100071Y365767D01*
X100044Y365449D01*
X100025Y365129D01*
X100014Y364810D01*
X100010Y364490D01*
X109040Y364490D02*
X109036Y364170D01*
X109025Y363851D01*
X109006Y363531D01*
X108979Y363213D01*
X108945Y362895D01*
X108903Y362578D01*
X108853Y362262D01*
X108796Y361947D01*
X108732Y361634D01*
X108660Y361322D01*
X108581Y361012D01*
X108494Y360705D01*
X108400Y360399D01*
X108299Y360096D01*
X108190Y359795D01*
X108075Y359497D01*
X107952Y359201D01*
X107822Y358909D01*
X107685Y358620D01*
X107686Y358620D02*
X107647Y358512D01*
X107604Y358405D01*
X107558Y358300D01*
X107507Y358196D01*
X107454Y358094D01*
X107397Y357994D01*
X107336Y357896D01*
X107272Y357801D01*
X107205Y357707D01*
X107134Y357616D01*
X107061Y357527D01*
X106984Y357441D01*
X106905Y357358D01*
X106823Y357277D01*
X106738Y357199D01*
X106650Y357125D01*
X106560Y357053D01*
X106467Y356984D01*
X106373Y356919D01*
X106276Y356857D01*
X106176Y356799D01*
X106075Y356743D01*
X105973Y356692D01*
X105868Y356644D01*
X105762Y356599D01*
X105654Y356558D01*
X105545Y356521D01*
X105435Y356488D01*
X105323Y356459D01*
X105211Y356433D01*
X105098Y356411D01*
X104984Y356394D01*
X104870Y356380D01*
X104755Y356370D01*
X104640Y356364D01*
X104525Y356362D01*
X101365Y358620D02*
X101228Y358909D01*
X101098Y359201D01*
X100975Y359497D01*
X100860Y359795D01*
X100751Y360096D01*
X100650Y360399D01*
X100556Y360705D01*
X100469Y361012D01*
X100390Y361322D01*
X100318Y361634D01*
X100254Y361947D01*
X100197Y362262D01*
X100147Y362578D01*
X100105Y362895D01*
X100071Y363213D01*
X100044Y363531D01*
X100025Y363851D01*
X100014Y364170D01*
X100010Y364490D01*
X101364Y358620D02*
X101403Y358512D01*
X101446Y358405D01*
X101492Y358300D01*
X101543Y358196D01*
X101596Y358094D01*
X101654Y357994D01*
X101714Y357896D01*
X101778Y357801D01*
X101845Y357707D01*
X101916Y357616D01*
X101989Y357527D01*
X102066Y357441D01*
X102145Y357358D01*
X102227Y357277D01*
X102312Y357199D01*
X102400Y357125D01*
X102490Y357053D01*
X102583Y356984D01*
X102677Y356919D01*
X102774Y356857D01*
X102874Y356799D01*
X102975Y356743D01*
X103078Y356692D01*
X103182Y356644D01*
X103288Y356599D01*
X103396Y356558D01*
X103505Y356521D01*
X103615Y356488D01*
X103727Y356459D01*
X103839Y356433D01*
X103952Y356411D01*
X104066Y356394D01*
X104180Y356380D01*
X104295Y356370D01*
X104410Y356364D01*
X104525Y356362D01*
X108138Y359974D02*
X100913Y369006D01*
D11*
X234950Y22050D02*
X247650Y22050D01*
M02*
